<svg width="288" height="192" viewBox="0 0 288 192" fill="none" xmlns="http://www.w3.org/2000/svg">
<path d="M216.061 160.414C217.119 159.97 217.872 158.879 217.878 157.593C217.885 155.908 216.61 154.537 215.03 154.529C213.451 154.522 212.165 155.882 212.158 157.566C212.153 158.864 212.911 159.969 213.98 160.414C209.579 161.077 209.779 165.861 209.779 165.861L220.187 165.909C220.187 165.909 220.424 161.073 216.061 160.414Z" fill="#EBEBEB"/>
<path d="M31.5792 52.1714C32.3733 51.8381 32.9381 51.0194 32.9428 50.0544C32.9477 48.7903 31.9912 47.7612 30.8058 47.7554C29.6208 47.75 28.6558 48.7703 28.6504 50.0344C28.6466 51.0083 29.2153 51.8369 30.0178 52.1714C26.715 52.6691 26.8648 56.2583 26.8648 56.2583L34.6746 56.2944C34.6746 56.2944 34.8532 52.666 31.5792 52.1714Z" fill="#EBEBEB"/>
<path d="M217.18 39.774C217.297 45.0394 213.125 49.4035 207.859 49.521C202.593 49.6381 198.229 45.4652 198.112 40.1998C197.994 34.9344 202.167 30.5702 207.433 30.4527C212.699 30.3348 217.062 34.5085 217.18 39.774Z" fill="#F5F5F5"/>
<path d="M205.632 37.4419C205.281 36.9807 204.605 36.9684 204.16 37.3064C203.715 37.6447 203.51 38.041 203.43 38.64C203.323 38.0452 203.066 37.6589 202.602 37.3409C202.139 37.0237 201.46 37.066 201.126 37.5421C200.93 37.8213 200.877 38.2034 200.931 38.554C200.985 38.9046 201.093 39.2671 201.314 39.5244C202.102 40.4398 202.523 40.5957 203.522 41.2362C204.485 40.5519 204.794 40.3795 205.534 39.4299C205.742 39.163 205.833 38.7963 205.871 38.443C205.908 38.0909 205.839 37.7119 205.632 37.4419Z" fill="#E0E0E0"/>
<path d="M214.052 37.2534C213.7 36.793 213.025 36.7807 212.58 37.1186C212.134 37.4561 211.929 37.8528 211.85 38.4515C211.743 37.857 211.486 37.4711 211.022 37.1532C210.558 36.8352 209.88 36.8782 209.546 37.3544C209.35 37.6335 209.297 38.0148 209.351 38.3654C209.405 38.716 209.513 39.0793 209.734 39.3358C210.521 40.2513 210.943 40.4079 211.942 41.0481C212.904 40.3642 213.214 40.1914 213.954 39.2421C214.162 38.9756 214.252 38.6085 214.29 38.2552C214.328 37.9031 214.259 37.5237 214.052 37.2534Z" fill="#E0E0E0"/>
<path d="M210.854 42.1555C210.741 43.7184 209.298 45.067 207.732 45.0758C206.165 45.0843 204.708 43.7514 204.578 42.1901L210.854 42.1555Z" fill="white"/>
<path d="M261.286 146.586C262.143 141.261 258.521 136.249 253.195 135.392C247.87 134.535 242.858 138.157 242.001 143.483C241.144 148.808 244.766 153.82 250.091 154.677C255.417 155.534 260.429 151.912 261.286 146.586Z" fill="#F5F5F5"/>
<path d="M248.407 142.238C248.778 142.216 249.105 142.63 249.138 143.166C249.171 143.7 248.897 144.152 248.527 144.175C248.156 144.199 247.829 143.783 247.796 143.248C247.763 142.713 248.037 142.261 248.407 142.238Z" fill="#E0E0E0"/>
<path d="M249.317 139.784C249.295 139.924 248.497 139.881 247.605 140.199C246.707 140.5 246.105 141.026 246.001 140.929C245.894 140.856 246.412 140.089 247.445 139.736C248.475 139.375 249.357 139.66 249.317 139.784Z" fill="#E0E0E0"/>
<path d="M256.397 143.763C256.292 143.85 255.767 143.284 254.926 143.199C254.084 143.103 253.451 143.544 253.368 143.437C253.325 143.389 253.428 143.201 253.708 143.011C253.981 142.822 254.45 142.655 254.978 142.711C255.506 142.769 255.928 143.032 256.156 143.275C256.389 143.52 256.448 143.726 256.397 143.763Z" fill="#E0E0E0"/>
<path d="M257.236 142.131C257.16 142.253 256.368 141.837 255.312 141.805C254.256 141.752 253.433 142.103 253.368 141.976C253.286 141.875 254.119 141.262 255.331 141.316C256.544 141.359 257.325 142.037 257.236 142.131Z" fill="#E0E0E0"/>
<path d="M256.545 144.846C256.588 144.841 256.6 145.655 255.933 146.723C255.303 147.764 253.833 149.026 251.855 149.105C249.874 149.15 248.329 147.983 247.635 146.983C246.902 145.958 246.862 145.145 246.906 145.148C246.993 145.119 247.156 145.872 247.908 146.77C248.625 147.653 250.074 148.658 251.839 148.615C253.604 148.547 254.987 147.454 255.647 146.527C256.341 145.584 256.457 144.822 256.545 144.846Z" fill="#E0E0E0"/>
<path d="M33.0462 87.7567C33.1564 93.1093 28.907 97.5375 23.5545 97.6481C18.2019 97.7583 13.7732 93.509 13.663 88.1564C13.5524 82.8038 17.8025 78.3752 23.1547 78.265C28.5073 78.1544 32.936 82.4045 33.0462 87.7567Z" fill="#F5F5F5"/>
<path d="M20.0104 85.5141C20.3779 85.4838 20.7109 85.8893 20.7546 86.4196C20.798 86.9499 20.5361 87.4042 20.1686 87.4345C19.8012 87.4648 19.4678 87.0593 19.4245 86.529C19.3807 85.9991 19.6429 85.5444 20.0104 85.5141Z" fill="#E0E0E0"/>
<path d="M20.863 83.06C20.8561 83.1437 20.0443 83.0665 19.1365 83.4102C18.2226 83.7385 17.6554 84.3241 17.5959 84.2646C17.5333 84.2296 18.0502 83.5077 19.0401 83.1487C20.0259 82.7797 20.8879 82.9928 20.863 83.06Z" fill="#E0E0E0"/>
<path d="M26.1733 85.3874C25.8051 85.3724 25.489 85.791 25.4668 86.3224C25.4449 86.8539 25.726 87.2974 26.0942 87.3124C26.4625 87.3274 26.7789 86.9088 26.8008 86.377C26.8227 85.8455 26.5416 85.4024 26.1733 85.3874Z" fill="#E0E0E0"/>
<path d="M25.2201 82.9701C25.1925 82.9041 26.045 82.6552 27.0453 82.9839C28.0494 83.3019 28.5955 84.0019 28.5344 84.0392C28.4772 84.1006 27.8866 83.5392 26.96 83.2489C26.0384 82.9432 25.2309 83.0534 25.2201 82.9701Z" fill="#E0E0E0"/>
<path d="M28.1371 87.8577C28.1521 87.8596 28.1444 88.0474 28.0695 88.3768C27.9966 88.7067 27.8265 89.1744 27.5066 89.6924C27.1886 90.2104 26.6975 90.7653 26.0286 91.2223C25.3639 91.6792 24.506 92.0195 23.5648 92.0767C22.6225 92.1178 21.7335 91.8685 21.0251 91.483C20.3123 91.0979 19.7659 90.5971 19.3961 90.1144C19.024 89.6321 18.8063 89.1852 18.6995 88.8645C18.5909 88.5443 18.564 88.3584 18.5782 88.3553C18.6358 88.3304 18.7875 89.0872 19.5482 89.99C19.9226 90.4385 20.459 90.9013 21.1441 91.2557C21.8253 91.6109 22.6663 91.8363 23.5499 91.7987C24.4323 91.7445 25.2448 91.4331 25.8853 91.0088C26.5297 90.5856 27.0151 90.0695 27.3411 89.5845C28.005 88.608 28.0772 87.8392 28.1371 87.8577Z" fill="#E0E0E0"/>
<path d="M106.953 100.925C106.475 100.353 105.607 100.374 105.054 100.833C104.5 101.292 104.259 101.813 104.19 102.586C104.02 101.828 103.668 101.346 103.055 100.964C102.441 100.582 101.572 100.674 101.17 101.305C100.934 101.674 100.887 102.167 100.976 102.615C101.064 103.063 101.223 103.523 101.521 103.84C102.584 104.972 103.134 105.15 104.453 105.916C105.651 104.984 106.039 104.745 106.937 103.485C107.188 103.13 107.285 102.654 107.314 102.199C107.343 101.743 107.233 101.26 106.953 100.925Z" fill="#E0E0E0"/>
<path d="M247.034 26.6623C246.556 26.0901 245.688 26.1116 245.135 26.5705C244.582 27.0294 244.341 27.5501 244.272 28.3238C244.101 27.5658 243.75 27.0839 243.136 26.7018C242.523 26.3194 241.654 26.4119 241.251 27.042C241.015 27.4115 240.969 27.9049 241.057 28.3526C241.146 28.8 241.305 29.26 241.603 29.5776C242.666 30.7096 243.216 30.887 244.535 31.6539C245.732 30.7215 246.12 30.4827 247.018 29.2216C247.27 28.8676 247.367 28.391 247.396 27.9356C247.425 27.481 247.314 26.9979 247.034 26.6623Z" fill="#E0E0E0"/>
<path d="M209.169 133.862C208.691 133.29 207.824 133.312 207.27 133.771C206.717 134.229 206.476 134.75 206.407 135.524C206.236 134.766 205.885 134.284 205.271 133.902C204.658 133.519 203.789 133.612 203.386 134.242C203.15 134.612 203.104 135.105 203.192 135.553C203.281 136 203.44 136.46 203.738 136.778C204.8 137.91 205.351 138.088 206.669 138.854C207.867 137.922 208.255 137.683 209.153 136.423C209.405 136.068 209.501 135.592 209.531 135.137C209.56 134.681 209.45 134.198 209.169 133.862Z" fill="#EBEBEB"/>
<path d="M236.221 65.5069C226.51 65.5069 217.921 70.29 212.665 77.6237L202.369 79.0821L208.145 87.3101C207.562 89.6029 207.25 92.0041 207.25 94.4786C207.25 110.479 220.221 123.45 236.221 123.45C252.222 123.45 265.193 110.479 265.193 94.4786C265.193 78.4785 252.222 65.5069 236.221 65.5069Z" fill="#E0E0E0"/>
<path d="M230.902 53.4647C235.148 47.8733 239.624 48.6632 242.731 50.0141C245.837 51.3654 247.923 54.7695 247.717 58.1507C247.662 59.0438 247.471 59.9839 247.835 60.8014C248.419 62.1166 250.119 62.4868 251.103 63.5366C252.448 64.972 252.15 67.2445 251.696 69.1592C251.241 71.0734 250.763 73.2588 251.889 74.8727C252.92 76.3507 254.886 76.7474 256.507 77.5342C258.649 78.5741 260.371 80.5148 260.994 82.8134C261.615 85.1121 261.068 87.7302 259.458 89.4847C257.881 91.2015 255.515 91.963 253.209 92.3028C246.499 93.2913 239.392 91.1263 234.372 86.5647C229.353 82.0032 226.52 75.135 226.864 68.3616" fill="#263238"/>
<path d="M257.033 90.0584C257.02 90.0449 257.179 89.9201 257.417 89.6275C257.655 89.3384 257.978 88.8703 258.173 88.1818C258.367 87.4975 258.41 86.6031 258.195 85.6109C257.996 84.619 257.487 83.5438 256.618 82.6099C256.184 82.1449 255.671 81.7098 255.082 81.3435C254.496 80.9706 253.825 80.6849 253.125 80.3973C252.427 80.1078 251.687 79.8171 250.986 79.3839C250.284 78.9512 249.652 78.3636 249.136 77.6667C248.087 76.2743 247.537 74.4518 247.494 72.5772C247.469 71.6387 247.559 70.6817 247.736 69.7332C247.909 68.784 248.15 67.8401 248.333 66.8794C248.459 66.2001 248.576 65.5116 248.568 64.8499C248.552 64.1829 248.369 63.5397 248.122 62.9253C247.875 62.3082 247.585 61.7099 247.353 61.0863C247.128 60.4477 247.028 59.7992 246.953 59.1617C246.875 58.5208 246.876 57.8884 246.804 57.2882C246.741 56.6815 246.617 56.0932 246.462 55.5268C246.148 54.3994 245.67 53.3426 245.04 52.4913L245.032 52.4809L245.03 52.4786C243.969 50.7994 242.219 49.8697 240.644 49.6497C239.044 49.4124 237.632 49.89 236.657 50.4833C235.663 51.0812 235.061 51.7932 234.705 52.2954C234.352 52.8054 234.221 53.1141 234.202 53.1045C234.202 53.1045 234.307 52.7843 234.645 52.2547C234.986 51.7336 235.58 50.9944 236.585 50.3658C237.569 49.7434 239.015 49.2299 240.67 49.458C242.299 49.6696 244.114 50.6097 245.232 52.3526L245.223 52.3403C245.897 53.2374 246.378 54.3007 246.709 55.4577C246.87 56.0364 246.999 56.6381 247.066 57.2579C247.142 57.8819 247.143 58.5078 247.221 59.1314C247.296 59.7558 247.398 60.394 247.611 60.9919C247.837 61.5955 248.128 62.193 248.38 62.8224C248.635 63.4495 248.831 64.133 248.849 64.8422C248.857 65.5542 248.737 66.24 248.61 66.932C248.424 67.9043 248.183 68.8466 248.012 69.7835C247.836 70.7186 247.748 71.6525 247.771 72.5699C247.809 74.4008 248.338 76.1641 249.345 77.5123C249.841 78.187 250.445 78.7546 251.117 79.1739C251.791 79.5951 252.518 79.8874 253.216 80.1819C253.915 80.4749 254.598 80.7706 255.199 81.1599C255.802 81.5416 256.325 81.9932 256.766 82.4755C257.649 83.4424 258.163 84.561 258.351 85.579C258.556 86.5958 258.496 87.5144 258.279 88.2125C258.063 88.9148 257.717 89.3829 257.462 89.6644C257.204 89.9493 257.033 90.0584 257.033 90.0584Z" fill="#455A64"/>
<path d="M241.502 83.4935C241.466 83.452 241.902 83.0123 242.476 82.5116C243.051 82.0109 243.545 81.6392 243.582 81.6806C243.618 81.7221 243.182 82.1618 242.608 82.6625C242.034 83.1633 241.539 83.5354 241.502 83.4935Z" fill="#FAFAFA"/>
<path d="M240.111 80.175L227.31 81.734C227.31 81.734 217.009 83.6064 214.939 91.3213C213.509 96.649 210.549 106.572 208.854 112.203C208.123 114.632 209.223 117.237 211.474 118.407C214.189 119.818 217.531 118.634 218.75 115.827L224.349 102.944C224.349 102.944 226.322 107.444 226.209 109.572C226.095 111.701 221.649 119.523 221.649 119.523C231.105 124.945 240.713 124.261 248.187 120.871L247.83 100.509C247.83 100.509 251.349 118.676 258.475 117.293C264.449 116.133 260.515 104.489 258.475 100.037C255.873 94.3576 252.478 86.2549 250.34 84.3014C244.611 79.0656 240.111 80.175 240.111 80.175Z" fill="#F55EAD"/>
<g opacity="0.2">
<path d="M228.292 82.7612C227.517 83.9689 226.451 84.9581 225.374 85.9058C224.648 86.5448 223.892 87.183 222.99 87.5317C222.088 87.8803 221 87.8926 220.215 87.3277C219.43 86.7629 219.121 85.5329 219.732 84.7837C220.136 84.2884 220.802 84.1079 221.423 83.9547C223.496 83.4436 225.569 82.9325 227.642 82.4214" fill="black"/>
</g>
<path d="M211.968 106.49C211.931 106.458 212.638 105.846 213.729 105.571C214.819 105.286 215.732 105.483 215.716 105.529C215.712 105.592 214.823 105.49 213.779 105.765C212.732 106.027 212.001 106.543 211.968 106.49Z" fill="#263238"/>
<path d="M213.658 104.725C213.63 104.683 214.227 104.379 215.021 104.46C215.815 104.532 216.344 104.943 216.309 104.98C216.279 105.033 215.741 104.724 215.002 104.658C214.264 104.582 213.676 104.783 213.658 104.725Z" fill="#263238"/>
<g opacity="0.2">
<path d="M216.2 105.676C215.089 105.123 213.681 105.22 212.656 105.922C212.441 106.068 212.17 106.246 211.946 106.115C211.731 105.988 211.744 105.664 211.863 105.445C212.146 104.923 212.794 104.726 213.385 104.664C214.45 104.553 215.544 104.729 216.52 105.168" fill="black"/>
</g>
<g opacity="0.2">
<path d="M237.008 97.0698C236.334 98.4276 234.395 99.2778 233.487 100.759C232.721 102.009 232.435 103.484 231.974 104.876C230.702 108.712 227.968 112.043 224.454 114.039C225.154 112.709 225.724 111.321 226.156 109.872C226.346 108.543 225.78 107.291 225.78 107.291C226.219 105.94 228.143 104.077 229.024 102.963C230.08 101.628 231.146 100.284 232.446 99.1857C233.747 98.0882 235.315 97.2403 237.008 97.0698Z" fill="black"/>
</g>
<path d="M242.455 111.314C242.407 111.286 242.875 110.385 243.499 109.302C244.124 108.218 244.669 107.363 244.717 107.391C244.764 107.418 244.297 108.319 243.672 109.402C243.048 110.485 242.502 111.341 242.455 111.314Z" fill="#FAFAFA"/>
<path d="M252.836 105.89C252.864 105.892 252.852 106.312 252.812 106.987C252.777 107.661 252.701 108.593 252.743 109.616C252.816 111.678 253.615 113.202 253.537 113.225C253.524 113.231 253.471 113.141 253.385 112.971C253.295 112.803 253.186 112.55 253.063 112.232C252.823 111.596 252.587 110.668 252.544 109.625C252.501 108.583 252.601 107.647 252.671 106.975C252.747 106.302 252.809 105.888 252.836 105.89Z" fill="#263238"/>
<path d="M235.476 114.54C235.514 114.503 236.174 115.139 236.838 116.05C237.505 116.959 237.91 117.781 237.864 117.806C237.814 117.835 237.335 117.065 236.677 116.168C236.021 115.268 235.433 114.579 235.476 114.54Z" fill="#FAFAFA"/>
<path d="M241.996 116.028C242.021 115.978 242.656 116.244 243.416 116.622C244.176 117.001 244.772 117.347 244.748 117.396C244.723 117.446 244.087 117.18 243.327 116.801C242.567 116.423 241.971 116.077 241.996 116.028Z" fill="#FAFAFA"/>
<path d="M237.708 109.865C237.674 109.906 237.12 109.493 236.564 108.851C236.006 108.21 235.675 107.603 235.72 107.576C235.769 107.544 236.168 108.093 236.715 108.72C237.259 109.349 237.745 109.822 237.708 109.865Z" fill="#FAFAFA"/>
<path d="M229.759 115.127C229.724 115.08 230.3 114.617 230.934 113.971C231.572 113.328 232.026 112.747 232.074 112.78C232.118 112.809 231.727 113.454 231.077 114.111C230.428 114.771 229.788 115.17 229.759 115.127Z" fill="#FAFAFA"/>
<path d="M225.563 117.276C225.601 117.235 226.114 117.641 226.71 118.183C227.306 118.725 227.759 119.197 227.722 119.238C227.685 119.279 227.172 118.873 226.575 118.331C225.98 117.789 225.526 117.316 225.563 117.276Z" fill="#FAFAFA"/>
<path d="M233.515 102.547C233.486 102.5 234.129 102.051 234.952 101.545C235.774 101.039 236.464 100.667 236.493 100.714C236.522 100.761 235.879 101.21 235.056 101.716C234.234 102.222 233.543 102.594 233.515 102.547Z" fill="#FAFAFA"/>
<path d="M240.323 100.158C240.373 100.135 240.742 100.797 241.148 101.638C241.553 102.479 241.842 103.18 241.792 103.205C241.742 103.228 241.373 102.566 240.968 101.725C240.562 100.884 240.273 100.182 240.323 100.158Z" fill="#FAFAFA"/>
<path d="M244.989 99.1453C244.942 99.1169 245.268 98.4822 245.719 97.728C246.17 96.9734 246.573 96.3848 246.62 96.4132C246.668 96.4416 246.341 97.076 245.89 97.8305C245.44 98.5851 245.036 99.1738 244.989 99.1453Z" fill="#FAFAFA"/>
<path d="M239.546 94.4271C239.572 94.3738 240.217 94.6575 241.055 94.8522C241.892 95.0531 242.595 95.0872 242.594 95.1468C242.597 95.1978 241.873 95.2535 241.009 95.0469C240.144 94.8453 239.521 94.4713 239.546 94.4271Z" fill="#FAFAFA"/>
<path d="M242.755 89.0941C242.7 89.098 242.61 88.4509 242.554 87.6495C242.498 86.8474 242.496 86.1946 242.552 86.1907C242.607 86.1869 242.697 86.8335 242.753 87.6357C242.81 88.4371 242.81 89.0903 242.755 89.0941Z" fill="#FAFAFA"/>
<path d="M249.913 99.7809C249.861 99.7613 250.094 99.0275 250.432 98.142C250.77 97.2564 251.086 96.5545 251.137 96.5745C251.189 96.594 250.957 97.3279 250.619 98.2134C250.28 99.0985 249.964 99.8004 249.913 99.7809Z" fill="#FAFAFA"/>
<path d="M250.939 103.668C250.983 103.64 251.39 104.225 251.682 105.047C251.978 105.868 252.033 106.578 251.981 106.583C251.923 106.593 251.782 105.913 251.493 105.114C251.21 104.313 250.889 103.698 250.939 103.668Z" fill="#FAFAFA"/>
<path d="M227.293 89.5227C227.322 89.4758 227.915 89.788 228.617 90.2208C229.319 90.6536 229.865 91.0422 229.836 91.089C229.807 91.1359 229.215 90.8237 228.512 90.3909C227.81 89.9585 227.264 89.5695 227.293 89.5227Z" fill="#FAFAFA"/>
<path d="M223.579 95.8149C223.539 95.7708 224.072 95.2581 224.594 94.5216C225.122 93.7885 225.434 93.1188 225.489 93.1423C225.537 93.1588 225.3 93.8822 224.757 94.638C224.218 95.3964 223.611 95.8552 223.579 95.8149Z" fill="#FAFAFA"/>
<path d="M218.052 96.0803C218.084 96.038 218.725 96.4842 219.417 97.1508C220.111 97.8159 220.582 98.4392 220.541 98.4733C220.497 98.5106 219.964 97.9523 219.278 97.2948C218.595 96.6363 218.016 96.1252 218.052 96.0803Z" fill="#FAFAFA"/>
<path d="M219.378 90.6966C219.339 90.657 219.942 90.0111 220.725 89.2547C221.508 88.4978 222.174 87.9168 222.212 87.9564C222.251 87.9959 221.647 88.6414 220.864 89.3983C220.082 90.1551 219.416 90.7361 219.378 90.6966Z" fill="#FAFAFA"/>
<path d="M215.958 100.927C215.905 100.943 215.638 100.239 215.361 99.3546C215.084 98.4695 214.902 97.7391 214.955 97.7226C215.008 97.7061 215.275 98.41 215.552 99.2947C215.829 100.179 216.011 100.91 215.958 100.927Z" fill="#FAFAFA"/>
<path d="M218.603 104.214C218.548 104.209 218.578 103.402 218.67 102.411C218.762 101.421 218.881 100.622 218.936 100.627C218.991 100.632 218.961 101.439 218.869 102.43C218.777 103.42 218.658 104.219 218.603 104.214Z" fill="#FAFAFA"/>
<path d="M237.731 89.0899C236.913 88.5093 235.892 88.2897 234.907 88.4817C233.978 88.6625 233.156 89.1955 232.612 89.9677L229.272 94.7144L211.16 109.159C208.346 111.403 208.613 115.759 211.68 117.643C213.828 118.964 216.615 118.55 218.287 116.661L233.071 99.9629L234.98 98.4918L237.225 96.8628L237.736 91.9761C237.736 91.9761 239.085 92.5736 240.139 93.0566C241.802 93.8189 242.356 92.433 242.356 92.433L237.731 89.0899Z" fill="#B78876"/>
<path d="M237.759 92.2295C237.734 92.246 237.627 92.1166 237.449 91.9219C237.272 91.7315 237.012 91.4676 236.652 91.3417C236.298 91.2215 235.931 91.3244 235.738 91.4673C235.535 91.612 235.491 91.7814 235.458 91.7702C235.438 91.7729 235.43 91.5675 235.647 91.3586C235.855 91.1578 236.281 91.0068 236.717 91.1528C237.139 91.3025 237.404 91.6143 237.559 91.8336C237.716 92.059 237.78 92.2153 237.759 92.2295Z" fill="#AA6550"/>
<path d="M235.383 93.534C235.364 93.519 235.429 93.3888 235.609 93.2444C235.786 93.1008 236.092 92.9556 236.452 92.9568C236.813 92.9587 237.118 93.1062 237.293 93.2513C237.472 93.3972 237.537 93.5278 237.517 93.5428C237.495 93.5628 237.395 93.471 237.213 93.3681C237.034 93.2648 236.762 93.1584 236.451 93.1569C236.141 93.1561 235.868 93.2602 235.688 93.3619C235.506 93.4629 235.405 93.5543 235.383 93.534Z" fill="#AA6550"/>
<path d="M250.852 88.1203L252.122 89.4962C252.122 89.4962 252.545 108.968 253.286 111.613C254.027 114.259 258.366 118.704 260.694 115.106C263.022 111.507 257.202 88.5435 257.202 88.5435C257.202 88.5435 255.614 83.2524 255.509 81.9825L250.852 88.1203Z" fill="#B78876"/>
<path d="M253.766 76.8422L253.266 90.2938C253.23 91.2541 252.704 92.1293 251.872 92.6104L247.82 94.9536C246.702 95.6006 245.303 94.7935 245.303 93.5017V81.0467C245.303 80.3397 245.687 79.6888 246.304 79.3459L252.368 75.9832C253.009 75.6276 253.794 76.1092 253.766 76.8422Z" fill="#455A64"/>
<path d="M249.108 80.3885C248.889 80.8332 249.072 81.3704 249.517 81.5889C249.962 81.8074 250.499 81.6238 250.718 81.1795C250.936 80.7348 250.753 80.1973 250.308 79.9791C249.864 79.7606 249.326 79.9438 249.108 80.3885Z" fill="#FAFAFA"/>
<path d="M255.508 81.9825C255.508 81.9825 252.508 77.8261 251.843 77.8614C251.177 77.8963 247.954 79.8232 248.094 80.2433C248.234 80.6638 248.9 80.9088 249.496 80.6285C250.091 80.3482 251.142 79.3325 251.387 79.5425C251.632 79.7526 252.333 80.4883 252.333 80.4883C252.333 80.4883 249.371 82.0001 249.145 82.59C248.915 83.1936 248.374 84.2365 249.075 84.6217C249.531 84.8728 250.266 84.5868 250.546 83.3956C250.546 83.3956 249.985 85.1121 250.851 85.5325C251.784 85.9853 252.07 85.033 252.823 84.0964C253.456 83.3088 253.741 84.311 253.741 84.311L255.508 81.9825Z" fill="#B78876"/>
<path d="M253.237 82.0182C253.233 82.0493 253.021 82.0301 252.688 82.0712C252.358 82.1103 251.903 82.2294 251.48 82.5051C251.057 82.7812 250.765 83.1498 250.596 83.4363C250.425 83.7239 250.357 83.9259 250.327 83.9171C250.304 83.9121 250.323 83.6917 250.471 83.3699C250.616 83.0508 250.912 82.6368 251.371 82.3373C251.829 82.0381 252.328 81.9337 252.678 81.9299C253.032 81.9241 253.241 81.9951 253.237 82.0182Z" fill="#AA6550"/>
<path d="M227.973 54.69L227.977 56.423L227.864 82.3665C227.851 85.3782 230.43 87.7882 233.655 87.7778C236.912 87.767 239.601 85.2937 239.665 82.2517C239.731 79.0583 239.86 75.6979 239.86 75.6979C239.86 75.6979 243.986 75.0881 244.934 69.7359C245.405 67.0744 245.349 62.6953 245.187 59.1137C245.041 55.89 242.244 53.4363 239.029 53.7189L227.973 54.69Z" fill="#B78876"/>
<path d="M243.925 62.3793C243.931 62.7429 243.628 63.0482 243.249 63.062C242.87 63.0755 242.557 62.7924 242.55 62.4288C242.544 62.0651 242.846 61.7595 243.225 61.7457C243.605 61.7318 243.918 62.0156 243.925 62.3793Z" fill="#263238"/>
<path d="M244.196 61.374C244.11 61.4623 243.595 61.0671 242.854 61.0556C242.114 61.0337 241.564 61.4051 241.485 61.3129C241.446 61.2722 241.536 61.1117 241.776 60.9435C242.012 60.7761 242.412 60.6163 242.873 60.6263C243.335 60.6371 243.72 60.8137 243.94 60.9915C244.165 61.1704 244.239 61.3344 244.196 61.374Z" fill="#263238"/>
<path d="M236.908 62.2545C236.915 62.6181 236.612 62.9234 236.232 62.9372C235.853 62.9507 235.54 62.6676 235.534 62.304C235.527 61.9403 235.83 61.6347 236.209 61.6209C236.589 61.607 236.902 61.8908 236.908 62.2545Z" fill="#263238"/>
<path d="M236.913 61.3828C236.826 61.4711 236.311 61.076 235.571 61.0648C234.831 61.0429 234.28 61.4143 234.202 61.3221C234.163 61.2814 234.252 61.1209 234.493 60.9527C234.729 60.7853 235.129 60.6255 235.59 60.6355C236.052 60.6463 236.436 60.8229 236.657 61.0007C236.881 61.1796 236.955 61.3432 236.913 61.3828Z" fill="#263238"/>
<path d="M239.503 66.9235C239.501 66.8813 239.963 66.8102 240.71 66.7281C240.9 66.7119 241.079 66.6774 241.114 66.5491C241.16 66.4132 241.085 66.2077 240.997 65.9862C240.827 65.5254 240.65 65.0423 240.463 64.5358C239.723 62.4714 239.191 60.7753 239.274 60.7461C239.358 60.7169 240.025 62.3666 240.766 64.4314C240.943 64.9402 241.114 65.4255 241.276 65.8898C241.344 66.106 241.462 66.3521 241.361 66.634C241.307 66.7745 241.166 66.8744 241.044 66.9051C240.922 66.94 240.816 66.94 240.722 66.9439C239.972 66.9707 239.505 66.9658 239.503 66.9235Z" fill="#263238"/>
<path d="M239.859 75.6979C239.859 75.6979 236.245 75.8665 232.705 73.6527C232.705 73.6527 234.384 77.3706 239.764 76.964L239.859 75.6979Z" fill="#AA6550"/>
<path d="M239.159 68.7034C238.898 68.3462 238.435 68.1446 237.971 68.1865C237.649 68.2153 237.321 68.3647 237.122 68.6231C236.922 68.8815 236.874 69.2521 237.047 69.5052C237.242 69.7897 237.658 69.8619 238.014 69.7678C238.369 69.6737 238.677 69.446 238.971 69.2195C239.052 69.1565 239.134 69.0912 239.186 69.004C239.237 68.9169 239.25 68.802 239.19 68.7283" fill="#AA6550"/>
<path d="M237.314 67.3974C237.435 67.3924 237.422 68.1965 238.1 68.7794C238.777 69.3642 239.636 69.289 239.64 69.4015C239.651 69.4522 239.447 69.5543 239.085 69.5574C238.729 69.5631 238.213 69.4403 237.799 69.0835C237.385 68.726 237.213 68.256 237.191 67.9254C237.166 67.5894 237.26 67.3916 237.314 67.3974Z" fill="#263238"/>
<path d="M221.505 84.9416C225.928 85.2895 229.823 82.1349 230.485 77.7485C230.554 77.2911 230.632 76.9175 230.73 76.6725C231.353 75.1146 231.363 73.3501 230.933 71.7281C230.733 70.977 230.448 70.1549 230.789 69.4568C231.037 68.9503 231.556 68.6469 231.981 68.2763C232.937 67.4423 233.459 66.1832 233.565 64.919C233.671 63.6549 233.392 62.3839 232.95 61.1946C232.707 60.5403 232.411 59.823 232.658 59.1698C232.832 58.7078 233.243 58.386 233.61 58.0558C234.386 57.3573 235.036 56.519 235.519 55.5932C236.01 54.6509 236.328 53.4271 235.046 52.6806C234.778 52.5243 234.477 52.4302 234.17 52.383C231.901 52.0312 229.197 52.3691 227.677 54.1547C226.439 55.6101 226.263 57.6626 226.143 59.5699C225.766 65.5776 215.82 76.7397 219.664 84.9677L221.505 84.9416Z" fill="#263238"/>
<path d="M237.156 58.4832C237.079 58.6833 236.341 58.5746 235.47 58.6641C234.597 58.7359 233.892 58.9778 233.78 58.795C233.73 58.7075 233.856 58.5204 234.143 58.3304C234.427 58.1407 234.879 57.9637 235.401 57.9149C235.924 57.8673 236.4 57.9583 236.714 58.0927C237.031 58.2271 237.189 58.3884 237.156 58.4832Z" fill="#263238"/>
<path d="M243.962 59.2251C243.829 59.391 243.322 59.2074 242.708 59.1882C242.095 59.1475 241.573 59.2812 241.456 59.103C241.405 59.0166 241.49 58.8495 241.72 58.6944C241.946 58.5396 242.323 58.4168 242.744 58.4367C243.166 58.4575 243.529 58.6164 243.739 58.7927C243.953 58.9697 244.021 59.1441 243.962 59.2251Z" fill="#263238"/>
<path d="M264.454 62.9376C264.454 63.3535 264.117 63.6902 263.702 63.6902C263.286 63.6902 262.949 63.3531 262.949 62.9376C262.949 62.5221 263.286 62.185 263.702 62.185C264.117 62.185 264.454 62.5217 264.454 62.9376Z" fill="#455A64"/>
<path d="M266.714 63.6902C267.129 63.6902 267.466 63.3533 267.466 62.9376C267.466 62.5219 267.129 62.185 266.714 62.185C266.298 62.185 265.961 62.5219 265.961 62.9376C265.961 63.3533 266.298 63.6902 266.714 63.6902Z" fill="#455A64"/>
<path d="M270.471 62.5613C270.679 62.9215 270.555 63.3815 270.195 63.5896C269.835 63.7974 269.375 63.6741 269.167 63.3143C268.959 62.9541 269.083 62.4941 269.442 62.286C269.803 62.0778 270.263 62.2011 270.471 62.5613Z" fill="#455A64"/>
<path d="M266.76 54.1463C266.76 54.1428 266.812 54.1421 266.912 54.1436C267.023 54.1467 267.171 54.1509 267.36 54.1563C267.458 54.1609 267.568 54.1609 267.689 54.1709C267.81 54.1878 267.942 54.2062 268.084 54.2262C268.227 54.2469 268.381 54.2688 268.544 54.2922C268.706 54.3322 268.877 54.3748 269.058 54.4197C269.781 54.6056 270.657 54.9231 271.552 55.5068C272.446 56.0809 273.376 56.9023 274.13 58.0182C274.871 59.1356 275.442 60.5414 275.593 62.1201C275.608 62.5152 275.656 62.9172 275.617 63.3254C275.603 63.5293 275.607 63.7367 275.577 63.9421C275.546 64.1476 275.515 64.3546 275.483 64.5631C275.315 65.3868 275.07 66.2304 274.646 67.0164C274.231 67.804 273.696 68.5536 273.043 69.2214C272.377 69.8753 271.6 70.4425 270.735 70.8799C269.872 71.3207 268.916 71.6252 267.92 71.7435C267.674 71.7923 267.421 71.7923 267.17 71.8072C266.918 71.8237 266.665 71.833 266.411 71.8211C265.903 71.8003 265.394 71.7366 264.891 71.6291C263.798 71.3964 262.769 70.9513 261.866 70.3557L261.957 70.3649C260.909 70.7858 259.88 71.1986 258.875 71.6018L258.693 71.6751L258.745 71.4858C259.056 70.3549 259.359 69.2552 259.651 68.1911L259.667 68.2725C258.802 67.1232 258.25 65.8107 258.022 64.5078C257.907 63.8569 257.859 63.2068 257.902 62.5789C257.915 62.2644 257.93 61.9542 257.99 61.6523C258.013 61.5011 258.036 61.3509 258.059 61.2015C258.087 61.0533 258.132 60.9097 258.167 60.7653C258.763 58.4463 260.191 56.7333 261.606 55.753C262.314 55.2541 263.012 54.8966 263.652 54.6735C263.811 54.6167 263.965 54.5614 264.113 54.5084C264.265 54.47 264.41 54.4328 264.55 54.3974C264.69 54.3629 264.823 54.3299 264.951 54.2984C265.079 54.2738 265.203 54.2604 265.319 54.2427C265.552 54.2131 265.757 54.1728 265.936 54.164C266.113 54.1582 266.263 54.1528 266.389 54.1486C266.504 54.1459 266.595 54.144 266.665 54.1425C266.729 54.1425 266.76 54.1436 266.76 54.1463C266.76 54.149 266.729 54.1532 266.667 54.159C266.597 54.1644 266.506 54.1716 266.392 54.1809C266.267 54.1893 266.117 54.1993 265.941 54.2112C265.763 54.225 265.561 54.27 265.33 54.3041C264.423 54.4704 263.063 54.8321 261.674 55.8478C260.287 56.8285 258.895 58.5251 258.323 60.8049C258.289 60.9469 258.245 61.0879 258.219 61.2338C258.197 61.3805 258.175 61.5279 258.152 61.6765C258.096 61.9726 258.083 62.2771 258.071 62.5862C258.031 63.2026 258.081 63.8396 258.196 64.4771C258.424 65.7531 258.968 67.0364 259.818 68.16L259.845 68.1969L259.833 68.2414C259.543 69.3059 259.243 70.4064 258.934 71.538L258.803 71.4217C259.807 71.0173 260.835 70.6034 261.884 70.1814L261.932 70.1618L261.976 70.1906C262.86 70.772 263.866 71.2067 264.934 71.434C265.425 71.5392 265.923 71.6018 266.42 71.6218C266.668 71.6337 266.915 71.6244 267.161 71.6083C267.408 71.5933 267.654 71.5945 267.895 71.5465C268.868 71.4317 269.803 71.1348 270.647 70.7048C271.494 70.2781 272.256 69.7248 272.909 69.0862C273.549 68.4342 274.074 67.7015 274.483 66.9316C274.901 66.1632 275.143 65.3376 275.311 64.5308C275.343 64.3265 275.374 64.1238 275.406 63.9226C275.435 63.721 275.432 63.5178 275.447 63.3178C275.487 62.9172 275.441 62.5225 275.429 62.1347C275.287 60.5848 274.734 59.2009 274.014 58.0961C273.279 56.9929 272.369 56.1761 271.492 55.6001C270.614 55.0149 269.752 54.69 269.039 54.4942C268.86 54.4466 268.691 54.4013 268.531 54.359C268.369 54.3325 268.217 54.3076 268.076 54.2842C267.935 54.2611 267.805 54.2396 267.685 54.2197C267.565 54.2062 267.455 54.2031 267.358 54.1955C267.17 54.1816 267.022 54.1713 266.913 54.1632C266.812 54.1559 266.76 54.1498 266.76 54.1463Z" fill="#455A64"/>
<path d="M95.5542 124.453L81.9959 126.738C76.921 122.361 70.3173 119.709 63.0901 119.709C47.0895 119.709 34.1184 132.68 34.1184 148.681C34.1184 164.681 47.0895 177.652 63.0901 177.652C79.0906 177.652 92.0613 164.681 92.0613 148.681C92.0613 144.199 91.0426 139.955 89.2255 136.166L95.5542 124.453Z" fill="#E0E0E0"/>
<path d="M36.1355 118.263C36.1355 118.679 36.4727 119.016 36.8881 119.016C37.304 119.016 37.6408 118.679 37.6408 118.263C37.6408 117.847 37.3036 117.511 36.8881 117.511C36.4723 117.511 36.1355 117.848 36.1355 118.263Z" fill="#263238"/>
<path d="M33.1228 118.263C33.1228 118.679 33.46 119.016 33.8754 119.016C34.2913 119.016 34.6281 118.679 34.6281 118.263C34.6281 117.847 34.2909 117.511 33.8754 117.511C33.46 117.511 33.1228 117.848 33.1228 118.263Z" fill="#263238"/>
<path d="M30.1185 117.887C29.9108 118.247 30.034 118.707 30.3938 118.915C30.754 119.123 31.2141 119 31.4222 118.64C31.6299 118.28 31.5067 117.82 31.1469 117.612C30.787 117.403 30.3266 117.527 30.1185 117.887Z" fill="#263238"/>
<path d="M33.8292 109.472C33.8292 109.475 33.7777 109.481 33.6775 109.49C33.5677 109.498 33.4202 109.509 33.2324 109.522C33.1349 109.53 33.0251 109.533 32.9053 109.546C32.7855 109.566 32.6549 109.587 32.5143 109.611C32.3726 109.634 32.221 109.659 32.0589 109.686C31.8996 109.728 31.7302 109.773 31.5509 109.821C30.8378 110.017 29.9761 110.342 29.0983 110.927C28.2208 111.503 27.3115 112.32 26.5766 113.423C25.8558 114.528 25.3028 115.912 25.1615 117.462C25.1492 117.85 25.1035 118.244 25.1431 118.645C25.1581 118.845 25.1542 119.048 25.1846 119.249C25.2157 119.451 25.2471 119.653 25.2786 119.858C25.4468 120.664 25.6891 121.49 26.1073 122.258C26.5155 123.028 27.0408 123.761 27.6813 124.413C28.3345 125.051 29.096 125.604 29.9427 126.031C30.7871 126.461 31.7218 126.758 32.6948 126.873C32.9356 126.921 33.1825 126.92 33.4287 126.935C33.6748 126.951 33.9221 126.96 34.1705 126.948C34.6667 126.928 35.1643 126.866 35.6558 126.76C36.7241 126.533 37.7298 126.098 38.6138 125.517L38.6576 125.488L38.706 125.508C39.7543 125.93 40.7826 126.344 41.7864 126.748L41.6558 126.864C41.3471 125.732 41.0472 124.632 40.7565 123.567L40.7442 123.523L40.7719 123.486C41.6217 122.362 42.1654 121.079 42.3939 119.803C42.5087 119.166 42.559 118.529 42.5187 117.912C42.5072 117.603 42.4937 117.299 42.4369 117.002C42.4146 116.854 42.3924 116.706 42.3705 116.56C42.3444 116.414 42.3002 116.273 42.2668 116.131C41.6942 113.851 40.3019 112.155 38.9149 111.174C37.5255 110.158 36.1662 109.796 35.2592 109.63C35.0284 109.596 34.8256 109.551 34.6478 109.537C34.4724 109.525 34.3226 109.515 34.1978 109.507C34.0834 109.498 33.9927 109.491 33.9225 109.485C33.8606 109.479 33.8292 109.475 33.8292 109.472C33.8292 109.469 33.8607 109.468 33.9229 109.468C33.9935 109.47 34.0845 109.472 34.1993 109.475C34.3249 109.479 34.4754 109.484 34.6521 109.49C34.8314 109.499 35.0361 109.539 35.2692 109.569C35.3851 109.587 35.5092 109.6 35.6374 109.624C35.7649 109.656 35.8982 109.689 36.0379 109.723C36.1777 109.759 36.3236 109.796 36.4753 109.834C36.6231 109.887 36.7767 109.942 36.9361 109.999C37.5759 110.223 38.274 110.58 38.9824 111.079C40.3971 112.059 41.8256 113.772 42.4208 116.091C42.4557 116.236 42.501 116.379 42.5287 116.527C42.5517 116.677 42.5751 116.827 42.5986 116.978C42.6577 117.28 42.6727 117.59 42.6861 117.905C42.7295 118.533 42.6807 119.182 42.5663 119.834C42.3378 121.137 41.7864 122.449 40.9216 123.598L40.937 123.517C41.2296 124.581 41.5318 125.681 41.8429 126.812L41.8951 127.001L41.7127 126.928C40.7085 126.525 39.6798 126.112 38.6311 125.691L38.7229 125.682C37.8193 126.277 36.7902 126.722 35.6973 126.955C35.1943 127.063 34.6851 127.126 34.1774 127.147C33.9236 127.159 33.6706 127.15 33.4187 127.133C33.1671 127.118 32.9145 127.118 32.6683 127.069C31.673 126.951 30.7172 126.647 29.854 126.206C28.9885 125.768 28.2112 125.201 27.5454 124.547C26.8922 123.88 26.3577 123.13 25.943 122.342C25.5186 121.556 25.2733 120.713 25.1051 119.889C25.0736 119.681 25.0425 119.474 25.0114 119.268C24.9814 119.063 24.9856 118.855 24.9714 118.651C24.9334 118.243 24.981 117.841 24.9956 117.446C25.1469 115.867 25.7179 114.462 26.4583 113.344C27.2128 112.228 28.1421 111.407 29.0368 110.833C29.9319 110.249 30.8075 109.932 31.5302 109.746C31.7114 109.701 31.883 109.658 32.0443 109.618C32.2083 109.595 32.3615 109.572 32.5047 109.552C32.6468 109.532 32.7782 109.514 32.8991 109.497C33.0201 109.487 33.1307 109.487 33.229 109.482C33.4179 109.477 33.5657 109.473 33.6763 109.47C33.7777 109.468 33.8292 109.468 33.8292 109.472Z" fill="#263238"/>
<path d="M66.2595 104.149C66.9611 102.584 68.6019 101.485 70.3192 101.427C72.0368 101.37 73.7475 102.358 74.5524 103.872C75.0316 104.774 75.2205 105.848 75.9129 106.598C76.7761 107.534 78.3659 107.683 79.3885 106.924C79.6684 108.017 78.991 109.269 77.9205 109.635C78.4865 109.693 79.0525 109.751 79.6185 109.809C78.7023 111.808 76.1932 112.724 74.0244 112.333C71.8556 111.943 70.0124 110.508 68.5363 108.876" fill="#263238"/>
<path d="M66.2716 104.177L71.5097 105.893C73.3518 107.111 74.8202 108.898 75.5437 110.984C75.7887 111.69 75.9557 112.426 76.2656 113.107C76.5755 113.788 77.0566 114.429 77.7409 114.735C78.2443 114.959 78.815 114.985 79.3318 115.176C80.2062 115.498 80.8682 116.299 81.0898 117.203C81.311 118.106 81.1105 119.09 80.6148 119.877C80.3663 120.271 80.0357 120.654 80.0142 121.119C79.9996 121.434 80.1317 121.734 80.2054 122.041C80.4558 123.081 79.9589 124.257 79.0369 124.805C78.1149 125.352 76.8416 125.228 76.0436 124.512C75.7088 125.282 75.263 126.073 74.5042 126.435C73.7454 126.797 72.6256 126.472 72.4678 125.648C72.0903 126.439 71.1472 126.916 70.2848 126.753C69.4223 126.589 68.72 125.801 68.6593 124.927L54.3035 109.268C56.4466 103.539 64.8254 104.046 66.2716 104.177Z" fill="#263238"/>
<path d="M68.7027 109.624C69.6266 109.721 70.3224 110.508 70.304 111.434L69.2898 135.545C69.2514 138.392 64.0717 141.759 61.0154 141.694C57.9288 141.63 58.8362 138.362 58.7917 135.654C58.7172 131.128 58.7187 129.429 58.7172 129.455C58.7172 129.455 54.8169 128.809 54.0089 123.734C53.6073 121.21 53.7344 117.072 53.9479 113.689C54.1403 110.644 56.1628 106.908 59.2045 107.229L68.7027 109.624Z" fill="#FFBE9D"/>
<path d="M55.2702 116.974C55.2579 117.318 55.5397 117.612 55.8995 117.631C56.2586 117.65 56.56 117.388 56.5723 117.044C56.5846 116.701 56.3027 116.407 55.9437 116.387C55.5839 116.368 55.2825 116.631 55.2702 116.974Z" fill="#263238"/>
<path d="M54.8481 115.842C54.9291 115.927 55.4233 115.562 56.1256 115.564C56.8272 115.556 57.3425 115.916 57.4185 115.831C57.4562 115.793 57.3736 115.639 57.149 115.476C56.9282 115.314 56.5515 115.157 56.1137 115.158C55.6763 115.16 55.3085 115.321 55.0969 115.486C54.8815 115.65 54.8081 115.804 54.8481 115.842Z" fill="#263238"/>
<path d="M62.1352 116.974C62.1229 117.318 62.4047 117.612 62.7645 117.631C63.1236 117.65 63.425 117.388 63.4373 117.044C63.4496 116.701 63.1677 116.407 62.8087 116.387C62.4489 116.368 62.1471 116.631 62.1352 116.974Z" fill="#263238"/>
<path d="M61.7507 115.973C61.8317 116.057 62.3267 115.693 63.0283 115.695C63.7298 115.687 64.2452 116.047 64.3212 115.961C64.3584 115.923 64.277 115.77 64.0516 115.607C63.8308 115.445 63.4541 115.287 63.0167 115.289C62.5794 115.291 62.2115 115.452 61.9999 115.616C61.7849 115.781 61.7111 115.935 61.7507 115.973Z" fill="#263238"/>
<path d="M59.2022 121.167C59.2052 121.127 58.769 121.052 58.0617 120.962C57.8824 120.943 57.7126 120.907 57.6823 120.786C57.6401 120.656 57.7153 120.463 57.8021 120.255C57.9707 119.823 58.1473 119.369 58.3324 118.893C59.0689 116.954 59.6019 115.36 59.5236 115.331C59.4449 115.302 58.7844 116.85 58.0479 118.79C57.8705 119.268 57.7011 119.724 57.5398 120.16C57.4719 120.363 57.3551 120.594 57.4469 120.862C57.4953 120.995 57.627 121.092 57.7418 121.123C57.8566 121.158 57.9576 121.16 58.0463 121.165C58.7579 121.204 59.1995 121.207 59.2022 121.167Z" fill="#263238"/>
<path d="M58.7173 129.456C58.7173 129.456 62.1406 129.676 65.5321 127.642C65.5321 127.642 63.879 131.129 58.786 130.654L58.7173 129.456Z" fill="#EB996E"/>
<path d="M59.4993 122.855C59.7519 122.522 60.1943 122.339 60.6336 122.386C60.9385 122.419 61.2465 122.566 61.4316 122.813C61.6166 123.06 61.6554 123.412 61.4872 123.648C61.2979 123.913 60.9016 123.975 60.5668 123.88C60.2316 123.785 59.9432 123.565 59.6694 123.346C59.5937 123.285 59.5162 123.222 59.4689 123.139C59.4217 123.056 59.4113 122.947 59.4701 122.878" fill="#EB996E"/>
<path d="M61.2688 121.652C61.1547 121.645 61.1532 122.405 60.5008 122.945C59.8495 123.486 59.037 123.401 59.0312 123.507C59.0204 123.555 59.2121 123.655 59.555 123.664C59.8914 123.676 60.3829 123.568 60.7818 123.238C61.1801 122.907 61.3509 122.465 61.3771 122.153C61.4059 121.836 61.321 121.647 61.2688 121.652Z" fill="#263238"/>
<path d="M61.4351 114.746C61.5042 114.937 62.2054 114.847 63.0295 114.946C63.8555 115.028 64.5198 115.269 64.6292 115.098C64.678 115.016 64.5624 114.838 64.2936 114.653C64.0275 114.469 63.6024 114.294 63.1078 114.239C62.6132 114.185 62.1605 114.263 61.8602 114.385C61.5576 114.506 61.4052 114.656 61.4351 114.746Z" fill="#263238"/>
<path d="M55.1065 113.815C55.2302 113.974 55.7136 113.809 56.2954 113.801C56.8768 113.773 57.3698 113.908 57.4831 113.742C57.533 113.661 57.4554 113.502 57.24 113.351C57.028 113.201 56.6732 113.078 56.2735 113.09C55.8737 113.103 55.5274 113.247 55.325 113.41C55.1192 113.573 55.052 113.737 55.1065 113.815Z" fill="#263238"/>
<path d="M69.7409 117.742C70.1264 117.476 70.6655 117.574 71.0714 117.809C72.0065 118.348 72.4715 119.581 72.1244 120.601C71.7772 121.622 70.6559 122.318 69.585 122.178" fill="#FFBE9D"/>
<path d="M61.7405 105.539C59.8862 105.6 58.4796 106.163 56.8514 107.052C55.2232 107.94 53.8627 109.406 53.3612 111.188C53.2549 111.566 53.1942 111.997 53.4019 112.331C53.6761 112.771 54.3239 112.845 54.7978 112.631C55.2716 112.417 55.6115 111.994 55.9329 111.587C56.1736 112.518 57.0995 113.225 58.0637 113.215C59.0279 113.204 59.938 112.476 60.1576 111.54C60.1653 112.514 61.143 113.32 62.1191 113.285C63.0956 113.25 63.96 112.499 64.2849 111.58C64.4665 112.446 64.66 113.34 65.18 114.058C65.6995 114.775 66.6403 115.268 67.4836 114.994C67.3642 115.75 67.2478 116.547 67.517 117.264C67.7862 117.981 68.5849 118.562 69.3111 118.313C70.0161 118.071 70.2895 117.238 70.4546 116.513C70.7726 115.115 71.0448 113.692 70.9999 112.259C70.955 110.827 70.571 109.369 69.6901 108.237C68.7784 107.065 67.398 106.322 65.9603 105.943C64.5226 105.564 63.0184 105.522 61.5316 105.541" fill="#263238"/>
<path d="M70.0963 120.664C70.1109 120.628 70.2941 120.708 70.5398 120.595C70.7818 120.5 71.0018 120.143 70.9764 119.728C70.9622 119.308 70.6896 119.006 70.4338 118.914C70.1793 118.81 69.9919 118.861 69.9811 118.822C69.9634 118.797 70.1539 118.662 70.4899 118.737C70.6516 118.774 70.8405 118.871 70.9876 119.046C71.1335 119.219 71.228 119.459 71.2402 119.714C71.2771 120.226 70.9549 120.69 70.6036 120.77C70.2564 120.861 70.069 120.685 70.0963 120.664Z" fill="#EB996E"/>
<path d="M70.248 122.796C70.6145 122.796 70.9116 122.5 70.9116 122.134C70.9116 121.769 70.6145 121.472 70.248 121.472C69.8816 121.472 69.5845 121.769 69.5845 122.134C69.5845 122.5 69.8816 122.796 70.248 122.796Z" fill="#F55EAD"/>
<path d="M66.3396 103.92C66.3354 103.901 66.6468 103.811 67.166 103.826C67.6825 103.838 68.4029 103.995 69.0941 104.391C69.7841 104.79 70.281 105.335 70.5502 105.776C70.8232 106.218 70.9008 106.533 70.882 106.539C70.8493 106.552 70.7257 106.261 70.4331 105.855C70.1432 105.449 69.6543 104.946 68.9942 104.564C68.3326 104.185 67.6529 104.015 67.156 103.967C66.6584 103.917 66.3439 103.955 66.3396 103.92Z" fill="#F55EAD"/>
<path d="M68.9996 103.923C68.9927 103.923 68.9865 103.869 68.9819 103.763C68.9831 103.658 69 103.499 69.0791 103.311C69.2242 102.935 69.6751 102.462 70.3927 102.294C71.1189 102.096 72.0378 102.468 72.676 103.17C73.0024 103.519 73.2785 103.942 73.5039 104.405C73.7301 104.867 73.9144 105.363 74.1091 105.863C74.3038 106.362 74.5054 106.845 74.7607 107.272C75.0169 107.698 75.3302 108.07 75.6854 108.352C76.0391 108.635 76.4396 108.821 76.8351 108.876C77.2295 108.942 77.607 108.857 77.9195 108.725C78.5504 108.44 78.9018 107.957 79.0635 107.613C79.2213 107.257 79.2294 107.033 79.2509 107.037C79.2578 107.037 79.2566 107.092 79.2478 107.197C79.2374 107.301 79.2052 107.454 79.1349 107.643C78.9886 108.01 78.6411 108.533 77.9779 108.853C77.6496 109.003 77.2422 109.104 76.8117 109.04C76.3828 108.988 75.9485 108.793 75.5714 108.497C75.192 108.203 74.8617 107.816 74.5926 107.374C74.3245 106.93 74.1187 106.438 73.9225 105.936C73.5415 104.931 73.1725 103.967 72.5405 103.296C71.9353 102.62 71.0951 102.268 70.4219 102.433C69.7476 102.573 69.3064 103 69.1494 103.344C68.98 103.692 69.0269 103.926 68.9996 103.923Z" fill="#455A64"/>
<path d="M59.4126 111.761C59.4057 111.762 59.3946 111.714 59.38 111.621C59.3689 111.529 59.3381 111.393 59.3331 111.214C59.3024 110.86 59.3132 110.339 59.4272 109.709C59.5386 109.079 59.7882 108.347 60.2048 107.608C60.6314 106.877 61.2397 106.14 62.0465 105.577C62.8479 105.008 63.728 104.655 64.5467 104.45C65.3673 104.239 66.1361 104.186 66.7739 104.222C67.4125 104.259 67.9221 104.372 68.2581 104.492C68.4297 104.541 68.5526 104.609 68.6394 104.643C68.7246 104.682 68.768 104.706 68.7649 104.712C68.7527 104.759 68.0296 104.393 66.7685 104.363C66.143 104.345 65.3927 104.413 64.5932 104.628C63.7952 104.838 62.9389 105.189 62.1625 105.739C61.3818 106.285 60.7881 106.995 60.3642 107.7C59.9502 108.415 59.6926 109.123 59.5658 109.736C59.3055 110.969 59.4622 111.761 59.4126 111.761Z" fill="#455A64"/>
<path d="M62.6186 111.419C62.6063 111.419 62.5956 111.278 62.6048 111.024C62.6132 110.77 62.6528 110.402 62.7526 109.956C62.9458 109.069 63.4457 107.858 64.4038 106.827C65.3623 105.795 66.5319 105.206 67.4013 104.947C67.8379 104.814 68.202 104.746 68.455 104.718C68.7081 104.689 68.849 104.69 68.8502 104.701C68.8559 104.739 68.2926 104.785 67.4459 105.081C66.6041 105.37 65.4802 105.962 64.5505 106.963C63.6212 107.964 63.1147 109.129 62.8901 109.989C62.6589 110.857 62.6566 111.422 62.6186 111.419Z" fill="#455A64"/>
<path d="M61.7405 141.398C60.6296 137.993 57.9124 134.525 54.9272 135.776C51.6044 137.169 50.6809 138.934 48.86 141.668C47.039 144.403 45.922 147.533 44.8226 150.627C44.3925 151.838 43.9774 153.242 44.6371 154.345C45.2058 155.296 46.3766 155.672 47.4495 155.957C50.2166 156.694 53.0122 157.324 55.8273 157.847C56.9566 158.057 58.1958 158.233 59.1946 157.667C60.4633 156.947 60.85 155.336 61.1142 153.905C62.0415 148.88 62.9689 143.856 63.8959 138.832" fill="#F55EAD"/>
<path d="M58.5449 134.142L54.1738 136.027C51.9646 137.766 51.3399 140.746 51.4151 143.552L49.5977 174.325C49.5977 174.325 62.3465 182.205 77.2445 173.964C77.6327 173.75 74.75 166.711 74.75 166.711L78.8078 151.345C79.1203 149.135 79.3112 144.554 78.7348 142.38C77.2556 136.804 73.3008 135.136 69.2389 134.019C69.2389 134.019 65.175 137.429 61.2102 136.71C61.2102 136.71 58.7918 136.485 58.5449 134.142Z" fill="#F55EAD"/>
<g opacity="0.2">
<path d="M52.6746 159.762C55.1963 163.416 57.718 167.071 60.2397 170.725C61.2259 172.154 62.2508 173.621 63.7138 174.556C65.84 175.914 68.7695 175.884 70.8677 174.482C72.9655 173.08 74.1141 170.385 73.6725 167.901C73.6202 167.606 73.5404 167.301 73.3365 167.083C73.0216 166.745 72.4874 166.704 72.0447 166.835C71.6019 166.966 71.216 167.237 70.8078 167.454C68.4328 168.714 65.4161 168.037 63.1877 166.532C60.9594 165.027 59.3235 162.819 57.6174 160.741C56.9865 159.972 56.2972 159.186 55.3637 158.842C54.4302 158.499 53.191 158.78 52.7955 159.692" fill="black"/>
</g>
<path d="M65.4155 144.685C66.8579 144.685 68.0271 143.518 68.0271 142.08C68.0271 140.641 66.8579 139.475 65.4155 139.475C63.9732 139.475 62.804 140.641 62.804 142.08C62.804 143.518 63.9732 144.685 65.4155 144.685Z" fill="white"/>
<path d="M53.2427 139.857C53.2427 141.295 54.412 142.462 55.8543 142.462C57.2966 142.462 58.4658 141.296 58.4658 139.857C58.4658 138.419 57.2966 137.252 55.8543 137.252C54.412 137.252 53.2427 138.418 53.2427 139.857Z" fill="white"/>
<path d="M51.1357 164.8C51.1357 166.239 52.305 167.405 53.7473 167.405C55.1896 167.405 56.3589 166.239 56.3589 164.8C56.3589 163.362 55.1896 162.195 53.7473 162.195C52.305 162.195 51.1357 163.362 51.1357 164.8Z" fill="white"/>
<path d="M58.4661 174.905C59.9084 174.905 61.0777 173.739 61.0777 172.3C61.0777 170.861 59.9084 169.695 58.4661 169.695C57.0237 169.695 55.8545 170.861 55.8545 172.3C55.8545 173.739 57.0237 174.905 58.4661 174.905Z" fill="white"/>
<path d="M70.6387 175.537C72.081 175.537 73.2503 174.37 73.2503 172.932C73.2503 171.493 72.081 170.327 70.6387 170.327C69.1963 170.327 68.0271 171.493 68.0271 172.932C68.0271 174.37 69.1963 175.537 70.6387 175.537Z" fill="white"/>
<path d="M60.3259 159.499C61.7683 159.499 62.9375 158.333 62.9375 156.894C62.9375 155.455 61.7683 154.289 60.3259 154.289C58.8836 154.289 57.7144 155.455 57.7144 156.894C57.7144 158.333 58.8836 159.499 60.3259 159.499Z" fill="white"/>
<path d="M57.7144 151.286C59.1567 151.286 60.326 150.119 60.326 148.681C60.326 147.242 59.1567 146.076 57.7144 146.076C56.272 146.076 55.1028 147.242 55.1028 148.681C55.1028 150.119 56.272 151.286 57.7144 151.286Z" fill="white"/>
<path d="M57.7142 134.775C57.7607 134.741 58.0372 135.574 59.0602 136.431C59.5628 136.86 60.2567 137.257 61.0858 137.53C61.9152 137.798 62.8856 137.925 63.8859 137.815C64.8874 137.693 65.8113 137.383 66.5958 136.994C67.3837 136.609 68.0411 136.161 68.5649 135.751C69.0895 135.342 69.4884 134.977 69.758 134.719C70.028 134.461 70.1758 134.316 70.1873 134.327C70.1965 134.335 70.0679 134.498 69.8133 134.774C69.5591 135.05 69.172 135.433 68.6529 135.862C68.1345 136.29 67.4759 136.757 66.6772 137.159C65.8823 137.564 64.9373 137.889 63.9082 138.013C62.8756 138.127 61.8768 137.99 61.027 137.705C60.178 137.415 59.4718 136.992 58.9676 136.539C58.4607 136.088 58.132 135.64 57.9539 135.307C57.8525 135.148 57.8072 135.006 57.7634 134.918C57.725 134.827 57.7077 134.778 57.7142 134.775Z" fill="#263238"/>
<path d="M70.8727 134.597C73.8591 135.845 76.9672 137.182 79.0301 139.672C81.1267 142.202 81.8571 145.641 81.7042 148.921C81.5518 152.2 80.5972 155.383 79.6495 158.527C79.2789 159.757 78.7812 161.134 77.5954 161.634C76.5728 162.066 75.4059 161.679 74.3714 161.276C71.7033 160.238 69.0752 159.098 66.4944 157.86C65.4591 157.364 64.3555 156.775 63.8859 155.729C63.2891 154.4 63.9327 152.873 64.5682 151.562C66.7989 146.964 69.0292 142.365 71.2598 137.766" fill="#F55EAD"/>
<path d="M77.2444 153.116C78.6867 153.116 79.856 151.949 79.856 150.511C79.856 149.072 78.6867 147.906 77.2444 147.906C75.8021 147.906 74.6328 149.072 74.6328 150.511C74.6328 151.949 75.8021 153.116 77.2444 153.116Z" fill="white"/>
<path d="M70.3281 157.878C71.7705 157.878 72.9397 156.711 72.9397 155.273C72.9397 153.834 71.7705 152.668 70.3281 152.668C68.8858 152.668 67.7166 153.834 67.7166 155.273C67.7166 156.711 68.8858 157.878 70.3281 157.878Z" fill="white"/>
<path d="M71.0195 142.486C71.0195 143.896 72.1662 145.04 73.5804 145.04C74.9947 145.04 76.1413 143.896 76.1413 142.486C76.1413 141.075 74.9947 139.932 73.5804 139.932C72.1658 139.932 71.0195 141.075 71.0195 142.486Z" fill="white"/>
<path d="M65.7122 157.457L65.0463 160.022L51.7764 150.349L47.713 144.574C47.1692 143.801 46.3471 143.269 45.4182 143.088C44.4328 142.896 43.4118 143.116 42.5935 143.696L38.813 146.379C38.813 146.379 38.9151 148.415 39.8337 148.008C40.7522 147.601 42.5896 146.582 42.5896 146.582L43.1 151.469L45.3456 153.098L47.5912 154.829L62.5745 169.702C65.8024 172.907 71.2283 172.022 73.2651 167.959L75.4854 161.655L65.7122 157.457Z" fill="#FFBE9D"/>
<path d="M64.7119 159.656C64.7199 159.636 64.9684 159.718 65.2691 159.999C65.5709 160.276 65.8881 160.769 66.0451 161.374C66.2014 161.977 66.2026 162.54 66.1891 162.937C66.1722 163.337 66.1384 163.581 66.1119 163.581C66.0831 163.58 66.067 163.333 66.0474 162.938C66.0251 162.544 66.0006 161.998 65.8516 161.424C65.7022 160.853 65.4261 160.383 65.1673 160.097C64.9112 159.808 64.695 159.685 64.7119 159.656Z" fill="#EB996E"/>
<path d="M42.5663 146.836C42.5448 146.822 42.6089 146.665 42.7656 146.44C42.9207 146.221 43.1857 145.908 43.6077 145.759C44.0432 145.613 44.4694 145.763 44.6779 145.965C44.8953 146.173 44.8872 146.379 44.8668 146.376C44.8346 146.387 44.7897 146.218 44.5873 146.073C44.3934 145.93 44.0266 145.828 43.6726 145.948C43.3128 146.074 43.0528 146.337 42.8754 146.528C42.6976 146.723 42.5905 146.852 42.5663 146.836Z" fill="#EB996E"/>
<path d="M44.9417 148.14C44.9191 148.161 44.8185 148.069 44.6365 147.968C44.4564 147.866 44.1833 147.762 43.8731 147.763C43.5628 147.764 43.2905 147.871 43.1112 147.974C42.93 148.077 42.8301 148.169 42.8075 148.149C42.7883 148.134 42.8524 148.003 43.0317 147.857C43.2072 147.713 43.5117 147.565 43.8727 147.563C44.2336 147.562 44.5389 147.707 44.7156 147.85C44.8957 147.995 44.9609 148.125 44.9417 148.14Z" fill="#EB996E"/>
<path d="M65.7122 157.457C65.7122 157.457 65.6189 157.459 65.4572 157.396C65.2975 157.335 65.064 157.204 64.8582 156.942C64.6523 156.684 64.4749 156.303 64.4219 155.834C64.3659 155.363 64.4822 154.823 64.7038 154.283C64.9215 153.738 65.2487 153.19 65.5271 152.575C65.812 151.961 66.0589 151.28 66.2866 150.553C66.7413 149.096 67.0692 147.445 67.5285 145.734C67.9881 144.026 68.5949 142.419 69.4669 141.136C70.3183 139.84 71.4568 138.943 72.5159 138.455C73.5799 137.954 74.5557 137.866 75.202 137.911C75.8544 137.959 76.1923 138.099 76.1923 138.099C76.1873 138.123 75.8409 138.012 75.1985 137.988C74.5615 137.969 73.6107 138.077 72.5769 138.583C71.5459 139.079 70.4477 139.962 69.6201 141.239C68.773 142.502 68.1786 144.088 67.7216 145.787C67.2651 147.487 66.9306 149.143 66.4629 150.608C66.2283 151.339 65.9729 152.026 65.6776 152.645C65.3873 153.267 65.0552 153.809 64.8347 154.337C64.6101 154.862 64.4911 155.376 64.5337 155.823C64.574 156.271 64.7334 156.641 64.9207 156.895C65.1081 157.152 65.324 157.288 65.4737 157.359C65.6246 157.432 65.7149 157.445 65.7122 157.457Z" fill="#263238"/>
<path d="M50.9851 149.119C50.9302 149.112 51.0777 147.622 51.3138 145.79C51.55 143.958 51.7861 142.479 51.841 142.486C51.896 142.493 51.7485 143.983 51.5123 145.816C51.2758 147.647 51.0396 149.126 50.9851 149.119Z" fill="#263238"/>
<path d="M45.0165 154.822L44.3118 160.367L35.8569 153.16L31.2324 154.277C31.2324 154.277 36.0005 164.289 39.7672 168.255C43.5339 172.22 45.5652 172.784 46.9864 172.846C48.9406 172.932 49.8334 170.552 49.8334 170.552L50.6847 156.771L45.0165 154.822Z" fill="#FFBE9D"/>
<path d="M44.3446 160.219C44.3918 160.196 44.7194 160.794 44.9406 161.6C45.1648 162.406 45.1909 163.087 45.1387 163.092C45.0811 163.098 44.9678 162.441 44.7478 161.654C44.5316 160.865 44.2916 160.243 44.3446 160.219Z" fill="#EB996E"/>
<path d="M35.0395 139.106H28.6747C27.7116 139.106 26.8522 140.223 27.1982 141.135L33.5987 153.602C33.846 154.085 34.3441 154.389 34.8878 154.389L42.6473 154.372C43.537 154.252 43.8619 153.265 43.4929 152.729L37.317 140.524C36.8919 139.657 36.0083 139.106 35.0395 139.106Z" fill="#455A64"/>
<path d="M34.6098 139.857H28.245C27.4474 139.857 26.9317 140.698 27.2946 141.406L33.543 153.602C33.7903 154.085 34.2884 154.389 34.8321 154.389H42.5029C42.9706 154.389 43.274 153.897 43.0632 153.481L36.8873 141.275C36.4622 140.407 35.5782 139.857 34.6098 139.857Z" fill="#263238"/>
<path d="M34.0698 144.963L30.1964 146.51L29.3662 149.631L31.2321 154.277L38.0769 155.273L36.072 153.224L36.3301 151.441C36.3301 151.441 38.2397 150.842 38.2869 150.55C38.3341 150.258 38.05 149.278 37.757 149.231C37.464 149.184 35.4611 149.929 35.4611 149.929C35.4611 149.929 37.8319 148.053 37.7654 147.751C37.699 147.45 37.4444 146.679 36.9717 146.594C36.499 146.508 32.6732 148.311 32.6732 148.311L32.0519 149.727L31.5101 147.462C31.5105 147.461 34.9096 146.508 34.0698 144.963Z" fill="#FFBE9D"/>
<path d="M34.5572 152.28C34.5342 152.287 34.4616 152.146 34.4259 151.894C34.389 151.644 34.4071 151.283 34.5419 150.917C34.6782 150.55 34.8997 150.265 35.0902 150.099C35.2811 149.931 35.4281 149.871 35.4408 149.891C35.4788 149.937 34.9746 150.301 34.7292 150.986C34.4689 151.666 34.616 152.27 34.5572 152.28Z" fill="#EB996E"/>
<path d="M32.7161 151.604C32.6935 151.592 32.8309 151.226 32.8697 150.589C32.8997 150.273 32.9177 149.882 33.0648 149.465C33.1389 149.259 33.2487 149.045 33.4215 148.865C33.594 148.684 33.8228 148.56 34.0544 148.467C34.9806 148.131 35.8146 147.86 36.4252 147.662C37.0346 147.468 37.4163 147.361 37.4255 147.387C37.4347 147.413 37.0695 147.567 36.472 147.796C35.8772 148.026 35.0382 148.323 34.1292 148.653C33.9092 148.741 33.7099 148.85 33.5621 149.002C33.4123 149.153 33.3106 149.341 33.2376 149.529C33.0924 149.91 33.0579 150.289 33.0103 150.606C32.935 151.248 32.7426 151.62 32.7161 151.604Z" fill="#EB996E"/>
<path d="M31.8276 150.904C31.7731 150.895 31.7842 150.553 31.8522 150.14C31.9201 149.727 32.0196 149.4 32.0741 149.409C32.1286 149.418 32.1175 149.76 32.0495 150.173C31.9816 150.586 31.8821 150.913 31.8276 150.904Z" fill="#EB996E"/>
<path d="M31.7236 142.209C31.7236 142.657 32.0865 143.02 32.5346 143.02C32.9824 143.02 33.3456 142.657 33.3456 142.209C33.3456 141.761 32.9828 141.398 32.5346 141.398C32.0865 141.398 31.7236 141.761 31.7236 142.209Z" fill="#FAFAFA"/>
<path d="M47.5909 154.829C47.5971 154.823 47.6793 154.888 47.8275 155.017C47.9949 155.167 48.2057 155.355 48.4619 155.585C49.0256 156.106 49.789 156.811 50.6967 157.651L50.7263 157.678L50.7229 157.721C50.6222 159.014 50.5036 160.535 50.3769 162.161C50.2018 164.543 50.0647 166.701 49.9883 168.263C49.9541 169.02 49.9261 169.644 49.9049 170.114C49.8888 170.551 49.8731 170.793 49.8592 170.793C49.8454 170.793 49.8347 170.551 49.827 170.113C49.8212 169.675 49.8243 169.041 49.8466 168.258C49.8869 166.692 50.0017 164.531 50.1772 162.147C50.2974 160.514 50.4279 158.989 50.552 157.706L50.5785 157.776C49.6907 156.916 48.9442 156.192 48.3927 155.658C48.1493 155.415 47.9496 155.215 47.7906 155.056C47.6547 154.914 47.5848 154.836 47.5909 154.829Z" fill="#EB996E"/>
<path d="M111.766 57.191L98.1175 50.4211C93.541 40.4452 83.4721 33.5128 71.7781 33.5128C55.7776 33.5128 42.8069 46.484 42.8069 62.4845C42.8069 78.485 55.7776 91.4561 71.7781 91.4561C87.3751 91.4561 100.087 79.1301 100.719 63.6883L111.766 57.191Z" fill="#E0E0E0"/>
<path d="M97.9711 30.9742C97.9711 31.3901 97.634 31.7268 97.2185 31.7268C96.8026 31.7268 96.4658 31.3897 96.4658 30.9742C96.4658 30.5587 96.803 30.2216 97.2185 30.2216C97.634 30.2212 97.9711 30.5583 97.9711 30.9742Z" fill="#24ABBE"/>
<path d="M100.983 30.9742C100.983 31.3901 100.646 31.7268 100.231 31.7268C99.8152 31.7268 99.478 31.3897 99.478 30.9742C99.478 30.5587 99.8152 30.2216 100.231 30.2216C100.647 30.2212 100.983 30.5583 100.983 30.9742Z" fill="#24ABBE"/>
<path d="M103.988 30.5979C104.195 30.9581 104.072 31.4181 103.712 31.6262C103.352 31.834 102.892 31.7107 102.684 31.3509C102.476 30.9911 102.599 30.5307 102.959 30.3226C103.319 30.1144 103.78 30.2377 103.988 30.5979Z" fill="#24ABBE"/>
<path d="M100.277 22.1829C100.277 22.1795 100.328 22.1787 100.429 22.1802C100.54 22.1833 100.687 22.1875 100.876 22.1929C100.975 22.1975 101.085 22.1975 101.206 22.2075C101.327 22.2244 101.459 22.2428 101.601 22.2628C101.744 22.2831 101.897 22.3054 102.061 22.3288C102.223 22.3688 102.394 22.4114 102.575 22.4563C103.298 22.6422 104.173 22.9597 105.069 23.5434C105.963 24.1175 106.893 24.9389 107.647 26.0548C108.387 27.1722 108.959 28.578 109.11 30.1567C109.124 30.5518 109.172 30.9539 109.134 31.362C109.12 31.566 109.124 31.7733 109.094 31.9788C109.063 32.1842 109.032 32.3912 109 32.5997C108.832 33.4234 108.587 34.267 108.162 35.0531C107.748 35.8406 107.213 36.5906 106.56 37.258C105.894 37.9119 105.117 38.4791 104.251 38.9165C103.389 39.3573 102.432 39.6618 101.437 39.7801C101.191 39.8289 100.938 39.8289 100.687 39.8438C100.435 39.8604 100.182 39.8696 99.9279 39.8577C99.4203 39.8369 98.9111 39.7732 98.4081 39.6657C97.3152 39.433 96.2861 38.9879 95.3825 38.3923L95.4743 38.4015C94.4256 38.8224 93.3969 39.2352 92.3923 39.6384L92.2099 39.7117L92.2621 39.5224C92.5732 38.3916 92.8754 37.2918 93.168 36.2277L93.1837 36.3091C92.319 35.1598 91.7675 33.8473 91.5391 32.5444C91.4246 31.8935 91.3759 31.2434 91.4193 30.6156C91.4327 30.3011 91.4477 29.9908 91.5068 29.6893C91.5302 29.538 91.5537 29.3879 91.5767 29.2385C91.6043 29.0903 91.6493 28.9467 91.6846 28.8023C92.2798 26.4833 93.7083 24.7703 95.1229 23.79C95.831 23.2911 96.5295 22.9336 97.1693 22.7105C97.3286 22.6537 97.4822 22.5984 97.6301 22.5454C97.7817 22.507 97.9277 22.4698 98.0674 22.4344C98.2068 22.3999 98.3405 22.3668 98.4676 22.3354C98.5958 22.3108 98.7199 22.2973 98.8362 22.2797C99.0693 22.2501 99.274 22.2098 99.4533 22.201C99.6299 22.1948 99.7805 22.1898 99.906 22.1856C100.021 22.1829 100.112 22.181 100.183 22.1795C100.245 22.1791 100.277 22.1802 100.277 22.1829C100.277 22.1856 100.245 22.1898 100.184 22.1956C100.113 22.201 100.022 22.2083 99.9083 22.2175C99.7835 22.2259 99.6338 22.2359 99.4583 22.2478C99.2801 22.2616 99.0777 22.3066 98.847 22.3407C97.94 22.507 96.5802 22.8687 95.1913 23.8844C93.8043 24.8652 92.4123 26.5617 91.8393 28.8415C91.8056 28.9836 91.7618 29.1245 91.7357 29.2704C91.7138 29.4171 91.6915 29.5645 91.6692 29.7132C91.6124 30.0092 91.5993 30.3137 91.5874 30.6228C91.5475 31.2392 91.5978 31.8762 91.7122 32.5137C91.9407 33.7897 92.4845 35.073 93.3343 36.1966L93.3619 36.2335L93.3496 36.2784C93.0593 37.3428 92.759 38.4434 92.4503 39.575L92.3201 39.4591C93.3239 39.0547 94.3522 38.6408 95.4006 38.2188L95.4489 38.1992L95.4927 38.228C96.3767 38.8097 97.3824 39.244 98.4507 39.4714C98.9422 39.5766 99.4399 39.6388 99.936 39.6591C100.184 39.6707 100.432 39.6618 100.678 39.6457C100.924 39.6311 101.171 39.6319 101.412 39.5839C102.385 39.4691 103.319 39.1722 104.164 38.7421C105.011 38.3159 105.772 37.7622 106.425 37.1236C107.066 36.4716 107.591 35.7389 107.999 34.969C108.417 34.2006 108.659 33.375 108.828 32.5682C108.859 32.3639 108.891 32.1612 108.922 31.9599C108.952 31.7583 108.948 31.5552 108.963 31.3551C109.003 30.9546 108.957 30.5599 108.945 30.172C108.803 28.6222 108.25 27.2383 107.53 26.1335C106.795 25.0303 105.885 24.2135 105.008 23.6375C104.13 23.0523 103.268 22.7274 102.555 22.5316C102.376 22.484 102.207 22.4387 102.047 22.3964C101.885 22.3699 101.733 22.345 101.592 22.3215C101.451 22.2985 101.321 22.277 101.201 22.257C101.081 22.2436 100.971 22.2405 100.874 22.2328C100.686 22.219 100.539 22.2083 100.429 22.2006C100.329 22.1921 100.277 22.1864 100.277 22.1829Z" fill="#24ABBE"/>
<path d="M89.3259 59.3987C89.3812 59.3994 89.3835 62.1201 89.3313 65.4747C89.279 68.8305 89.1919 71.5492 89.1366 71.548C89.0813 71.5473 89.079 68.827 89.1312 65.4712C89.1834 62.117 89.2706 59.3975 89.3259 59.3987Z" fill="#24ABBE"/>
<path d="M78.1626 45.0152C78.1695 45.0159 78.1653 45.0851 78.1507 45.216C78.1403 45.3481 78.1069 45.5393 78.0543 45.7851C77.946 46.2739 77.7129 46.974 77.2464 47.7469C76.7744 48.5107 76.0525 49.3459 75.0319 49.978C74.0192 50.6173 72.701 50.9898 71.3197 50.9549C69.9381 50.9115 68.6429 50.4649 67.6679 49.7691C66.6845 49.0802 66.0109 48.2051 65.5832 47.4159C65.1608 46.6176 64.9684 45.906 64.8877 45.4115C64.8493 45.1634 64.8267 44.9702 64.824 44.8378C64.8171 44.706 64.8167 44.6369 64.8236 44.6365C64.8451 44.6346 64.8601 44.9115 64.9641 45.3965C65.0671 45.8807 65.2775 46.5738 65.7072 47.3476C66.1419 48.1125 66.8116 48.9565 67.7727 49.6174C68.7247 50.2848 69.9823 50.7126 71.3251 50.7548C72.668 50.7882 73.9474 50.4326 74.9355 49.8205C75.9327 49.215 76.6489 48.4105 77.1262 47.6717C77.5985 46.9236 77.8485 46.2432 77.9787 45.7659C78.1104 45.2874 78.1411 45.0121 78.1626 45.0152Z" fill="#24ABBE"/>
<path d="M54.72 60.2185C54.7753 60.2185 54.8214 62.8712 54.8229 66.1432C54.8244 69.4161 54.7811 72.0683 54.7258 72.0683C54.6705 72.0683 54.6244 69.4161 54.6228 66.1432C54.6213 62.8712 54.6647 60.2185 54.72 60.2185Z" fill="#24ABBE"/>
<path d="M66.0584 43.9519L77.4644 43.9569C77.4644 43.9569 87.7763 47.621 91.1286 50.1911C94.4813 52.7612 99.622 70.8653 99.622 70.8653L89.3231 70.5612L88.5501 86.1108C78.0008 93.623 65.3423 93.0743 55.5637 86.4968L54.8003 71.7773C54.8003 71.7773 49.1206 71.6102 46.2214 71.525C43.3222 71.4397 43.187 70.6422 43.187 70.6422C43.187 70.6422 49.7803 53.3207 51.7921 49.968C53.5446 47.0458 63.7383 44.4365 66.0584 43.9519Z" fill="#24ABBE"/>
<path d="M93.4937 54.3372C93.4937 54.3372 93.3651 54.4385 93.0859 54.5741C92.809 54.7112 92.3713 54.8728 91.7822 54.9339C91.1955 54.9999 90.4628 54.9611 89.6487 54.7626C88.8304 54.5745 87.9449 54.2039 87.0007 53.7512C86.0526 53.3092 85.0288 52.7758 83.8473 52.4617C82.6691 52.1441 81.3309 52.1606 80.0023 52.5093C78.6694 52.8484 77.3488 53.4678 76.0321 54.1889C74.7154 54.9132 73.3794 55.7345 71.911 56.3919C70.4487 57.0455 68.8843 57.4779 67.3514 57.4015C65.8211 57.337 64.4038 56.8681 63.1301 56.3217C61.8506 55.7718 60.6978 55.129 59.5996 54.5752C58.5036 54.0169 57.4619 53.5388 56.4696 53.2163C54.4859 52.5546 52.7344 52.5988 51.6124 52.8937C51.0471 53.035 50.6286 53.2151 50.354 53.3526C50.215 53.4182 50.1159 53.4816 50.0449 53.5165C49.975 53.5538 49.9385 53.5715 49.9366 53.5684C49.9347 53.5653 49.9677 53.5419 50.0345 53.4989C50.1021 53.4582 50.1985 53.3883 50.3356 53.3165C50.6059 53.1667 51.0241 52.9728 51.5932 52.818C52.7225 52.4959 54.5001 52.4291 56.513 53.0815C57.5183 53.3987 58.572 53.8737 59.6741 54.4266C60.7785 54.9754 61.9324 55.6116 63.2023 56.1516C64.4672 56.6892 65.8653 57.145 67.3591 57.2052C68.8536 57.2774 70.3827 56.8554 71.8296 56.2088C73.2823 55.5587 74.6136 54.7423 75.938 54.0165C77.2628 53.2942 78.5991 52.6706 79.957 52.33C81.309 51.9794 82.6864 51.9683 83.8895 52.3008C85.0937 52.6291 86.1186 53.174 87.0613 53.6229C88.001 54.0833 88.87 54.4573 89.6752 54.6532C90.4763 54.8594 91.1963 54.9085 91.7746 54.8556C92.3548 54.8072 92.7899 54.6605 93.069 54.5365C93.3505 54.4155 93.488 54.3268 93.4937 54.3372Z" fill="#FAFAFA"/>
<path d="M97.2381 63.0129C97.2308 63.0251 97.0753 62.9146 96.7477 62.7683C96.4217 62.6235 95.9202 62.4342 95.2436 62.3585C94.5704 62.274 93.726 62.3094 92.789 62.5402C91.8506 62.7683 90.8379 63.2256 89.7835 63.8346C88.7236 64.4379 87.6246 65.2067 86.3624 65.9105C85.1075 66.5983 83.6437 67.2599 81.9902 67.2964C80.3386 67.3574 78.6728 66.7803 77.07 66.0703C75.4576 65.3668 73.8329 64.5116 72.025 64.0942C70.2148 63.6879 68.3724 63.7939 66.6502 64.0869C64.9202 64.3764 63.289 64.8491 61.725 65.2612C60.1621 65.6767 58.6587 66.0357 57.223 66.2054C55.7895 66.3759 54.4271 66.3663 53.2155 66.1298C50.7821 65.6548 49.0791 64.3937 48.237 63.3208C47.7954 62.7894 47.5719 62.2963 47.4152 61.9734C47.3561 61.8117 47.3092 61.6838 47.2739 61.5875C47.2432 61.5003 47.229 61.4554 47.2324 61.4542C47.2701 61.4323 47.4279 62.213 48.2969 63.2717C49.1471 64.3162 50.8386 65.54 53.242 65.9912C54.4359 66.215 55.7834 66.217 57.2026 66.0411C58.6246 65.866 60.1179 65.5035 61.6774 65.0834C63.2376 64.6671 64.8734 64.1883 66.6175 63.8938C68.3532 63.5962 70.2225 63.4852 72.0692 63.8991C73.9124 64.3258 75.5448 65.1894 77.1491 65.8909C78.7442 66.601 80.3786 67.1674 81.9852 67.1121C83.5919 67.0829 85.0338 66.4416 86.2826 65.765C87.5371 65.0738 88.6426 64.3108 89.7132 63.7114C90.7788 63.1062 91.8068 62.6523 92.7622 62.4311C93.7149 62.2072 94.5716 62.1834 95.2528 62.281C95.9375 62.3697 96.4413 62.5739 96.7642 62.7318C97.0899 62.8915 97.2381 63.0129 97.2381 63.0129Z" fill="#FAFAFA"/>
<path d="M88.9821 77.2485C88.9821 77.2485 88.8799 77.323 88.656 77.4052C88.4341 77.4885 88.0858 77.5718 87.6315 77.5672C87.1784 77.5626 86.6247 77.4647 86.0241 77.2351C85.4216 77.0093 84.7842 76.6518 84.0741 76.2874C83.3664 75.9203 82.5531 75.59 81.6261 75.4602C80.7042 75.3197 79.695 75.34 78.6567 75.5048C76.5643 75.8173 74.4254 76.7808 72.1367 77.6433C70.9894 78.0733 69.8362 78.4266 68.6969 78.6432C67.5591 78.8652 66.4439 78.9792 65.3803 79.0126C63.2491 79.0717 61.3367 78.7818 59.78 78.3848C58.2194 77.9904 57.0144 77.4785 56.2088 77.0849C55.7995 76.8998 55.5003 76.7186 55.2926 76.6068C55.1989 76.5531 55.1221 76.5093 55.0595 76.4736C55.0077 76.4425 54.9819 76.4252 54.9835 76.4221C54.985 76.4191 55.0142 76.4306 55.0695 76.4555C55.1348 76.4867 55.2142 76.5247 55.3118 76.5711C55.5253 76.6714 55.829 76.8407 56.2422 77.0143C57.0548 77.3844 58.2609 77.8733 59.815 78.2473C61.3652 78.624 63.2637 78.8966 65.3753 78.8283C66.4294 78.7899 67.5334 78.6735 68.6592 78.4508C69.787 78.2335 70.9252 77.8836 72.0676 77.4555C74.3447 76.5984 76.5028 75.6303 78.6286 75.3224C79.6831 75.1603 80.7111 75.1453 81.6523 75.2963C82.5969 75.4353 83.4325 75.7839 84.1394 76.1614C84.8498 76.5366 85.4765 76.8991 86.0652 77.1306C86.6508 77.366 87.1911 77.4731 87.6338 77.4893C88.5312 77.52 88.9767 77.2151 88.9821 77.2485Z" fill="#FAFAFA"/>
<path d="M88.6525 85.3006C88.6314 85.3194 88.3457 84.8909 87.6391 84.3176C86.9345 83.7638 85.7448 83.0738 84.1221 82.9244C83.3187 82.8422 82.419 82.9275 81.5224 83.2335C80.6292 83.5576 79.7564 84.101 78.9185 84.7715C78.0771 85.4404 77.2554 86.2222 76.3407 86.9695C75.4298 87.7125 74.3892 88.4183 73.1715 88.7846C71.9554 89.1471 70.697 89.1656 69.5255 89.0139C68.3489 88.8657 67.2453 88.565 66.2108 88.249C64.1402 87.6169 62.3393 86.8616 60.7726 86.4215C59.2089 85.9691 57.8726 85.8755 56.9759 86.0252C56.0766 86.1619 55.6197 86.405 55.6097 86.3747C55.6081 86.3716 55.6366 86.3574 55.693 86.3324C55.761 86.304 55.8443 86.269 55.9461 86.226C56.0563 86.1757 56.1972 86.1258 56.3692 86.0836C56.539 86.0325 56.7359 85.9795 56.964 85.9484C57.8687 85.7725 59.2296 85.8467 60.8102 86.2852C62.3965 86.7126 64.199 87.4533 66.2649 88.0731C67.296 88.3826 68.3911 88.6763 69.5496 88.82C70.704 88.9667 71.9327 88.9455 73.1139 88.5934C74.2951 88.2382 75.3127 87.552 76.2174 86.8174C77.1252 86.0797 77.9512 85.2991 78.8044 84.6271C79.6542 83.9539 80.5489 83.4029 81.4679 83.0772C82.3933 82.7689 83.316 82.6909 84.1359 82.7839C85.7917 82.9551 86.9898 83.6778 87.6883 84.2573C88.3887 84.8571 88.6525 85.3006 88.6525 85.3006Z" fill="#FAFAFA"/>
<g opacity="0.2">
<path d="M54.4417 83.7819C56.7568 83.962 58.8189 82.4079 60.5373 80.8462C62.2557 79.2845 64.0524 77.5446 66.351 77.2147C68.7599 76.8691 71.2082 78.174 73.5944 77.6963C74.6685 77.4812 75.6703 76.9114 76.7647 76.8687C78.5688 76.7981 80.0813 78.1398 81.3796 79.3943C83.0677 81.0259 84.7558 82.6575 86.4434 84.2892C86.9603 84.7887 87.9457 85.5368 88.5935 85.2253L88.719 82.7009C87.9099 78.1594 87.0313 73.4895 83.5331 70.4824C80.9365 68.2502 77.4033 67.483 74.0011 67.0955C69.8792 66.6263 65.4194 66.6801 61.9596 68.9683C59.6525 70.4943 58.0244 72.8859 56.9576 75.438C55.8909 77.99 55.3379 80.7226 54.7911 83.434" fill="black"/>
</g>
<path d="M98.7798 70.8403C98.8796 71.439 100.54 81.0317 100.241 82.9279C99.9414 84.8241 99.4426 87.3189 97.2469 88.2171C95.0515 89.1153 91.8578 87.9176 90.0615 84.8241C88.2651 81.7302 80.481 70.8526 80.481 70.8526L74.6926 70.1541V60.4739L85.7703 67.5252L90.8598 72.144L90.4708 70.5949L98.7798 70.8403Z" fill="#EB996E"/>
<path d="M77.1904 73.6908H68.4518C67.7344 73.6908 67.1531 73.1094 67.1531 72.3921V56.6266C67.1531 55.9092 67.7344 55.3279 68.4518 55.3279H77.1904C77.9078 55.3279 78.4891 55.9092 78.4891 56.6266V72.3921C78.4891 73.1094 77.9078 73.6908 77.1904 73.6908Z" fill="#455A64"/>
<path d="M85.2829 67.2787C85.3198 67.2376 87.7274 69.3189 90.6604 71.927C93.5942 74.5359 95.9424 76.684 95.9055 76.7251C95.869 76.7662 93.4613 74.6853 90.5276 72.0764C87.5946 69.4683 85.246 67.3198 85.2829 67.2787Z" fill="#E07646"/>
<path d="M44.6934 71.3833C44.6934 71.3833 43.3118 83.3084 43.3118 84.6666C43.3118 86.0252 44.5344 89.2854 47.9305 89.5572C51.3266 89.8287 55.6739 82.2213 55.6739 82.2213L62.7379 71.4893L59.6133 65.6479L53.5047 71.7389L44.6934 71.3833Z" fill="#EB996E"/>
<path d="M76.2336 62.5048L67.0852 62.2514L59.6133 65.6475L62.7379 71.4889L68.2049 70.6921C68.2049 70.6921 71.4036 70.1714 71.601 69.9748C71.9693 69.6081 72.2899 68.4741 72.5103 67.4899C72.7346 66.4873 72.6224 65.4397 72.1881 64.5085L71.9823 64.3338C71.9823 64.3338 74.9932 63.7048 75.4928 63.4844C76.6924 62.956 76.2336 62.5048 76.2336 62.5048Z" fill="#EB996E"/>
<path d="M59.6138 65.6479C59.6238 65.6575 59.4967 65.8111 59.2578 66.0814C59.0197 66.3521 58.6661 66.7357 58.2237 67.2046C57.3393 68.1427 56.0871 69.4088 54.689 70.7908C53.3062 72.1617 52.0555 73.4012 51.1143 74.334C50.6792 74.7686 50.3168 75.1308 50.0353 75.4118C49.7792 75.6653 49.6328 75.8012 49.6229 75.7916C49.6129 75.782 49.74 75.6284 49.9788 75.3581C50.2169 75.0874 50.5706 74.7037 51.0129 74.2349C51.8973 73.2968 53.1499 72.0303 54.548 70.6483C55.9304 69.2782 57.1807 68.0387 58.1219 67.1059C58.557 66.6712 58.9199 66.3087 59.201 66.028C59.4575 65.7742 59.6038 65.6383 59.6138 65.6479Z" fill="#E07646"/>
<path d="M68.6285 65.2201C68.5925 65.1867 69.2825 64.6172 70.3373 64.4129C71.3903 64.1983 72.2454 64.4609 72.2251 64.5059C72.2163 64.5677 71.3803 64.4029 70.3765 64.6092C69.3701 64.8019 68.6604 65.2735 68.6285 65.2201Z" fill="#E07646"/>
<path d="M72.7419 66.2404C72.7227 66.2991 72.0081 66.0154 71.0961 66.1052C70.1826 66.1805 69.5305 66.5879 69.5014 66.5334C69.4633 66.5 70.1058 65.9885 71.0781 65.9059C72.0492 65.8126 72.7734 66.2008 72.7419 66.2404Z" fill="#E07646"/>
<path d="M72.1662 67.9246C72.1455 67.948 72.0449 67.8808 71.8725 67.8186C71.7008 67.7549 71.4493 67.7096 71.174 67.7457C70.899 67.7837 70.6683 67.8943 70.5196 68.001C70.3699 68.1066 70.2904 68.1984 70.2643 68.1811C70.2439 68.1696 70.2831 68.044 70.4279 67.8939C70.57 67.7438 70.8307 67.5909 71.1475 67.5479C71.4643 67.5057 71.7561 67.5844 71.9328 67.6911C72.1117 67.7971 72.1828 67.9081 72.1662 67.9246Z" fill="#E07646"/>
<path d="M72.0988 49.6942C75.1313 49.5191 77.4917 46.9939 77.4641 43.9565C77.4475 42.1321 77.426 40.5681 77.426 40.5681C77.426 40.5681 82.0521 39.8488 82.1093 35.2236C82.1665 30.5983 81.3647 19.978 81.3647 19.978C76.0106 17.6771 69.8309 18.4539 65.2125 22.0082L64.5271 22.5358L66.0911 44.4157C66.3135 47.5223 68.9899 49.8739 72.0988 49.6942Z" fill="#EB996E"/>
<path d="M77.434 40.5016C77.434 40.5016 74.511 40.7393 71.4041 38.7878C71.4041 38.7878 72.8295 42.1164 77.4444 41.6997L77.434 40.5016Z" fill="#E07646"/>
<path d="M65.0972 27.327C65.0185 27.2928 61.9192 26.3869 62.0202 29.5492C62.1212 32.711 65.275 31.9576 65.2777 31.8666C65.28 31.7756 65.0972 27.327 65.0972 27.327Z" fill="#EB996E"/>
<path d="M64.2733 30.6996C64.2591 30.69 64.2195 30.74 64.1277 30.7857C64.0382 30.8302 63.8831 30.8636 63.7161 30.8072C63.3782 30.6954 63.0798 30.174 63.0464 29.6045C63.0291 29.3169 63.0806 29.0408 63.1754 28.8108C63.2645 28.5765 63.4089 28.4099 63.5763 28.3745C63.7422 28.3304 63.8647 28.4275 63.9062 28.5151C63.9515 28.6022 63.9334 28.666 63.9503 28.6706C63.9595 28.6783 64.0164 28.6157 63.9868 28.4859C63.9718 28.4237 63.9323 28.35 63.8562 28.2916C63.7783 28.2321 63.6658 28.2044 63.549 28.2209C63.306 28.2455 63.0936 28.4771 62.9892 28.7297C62.8717 28.9839 62.8071 29.2942 62.8263 29.6172C62.8671 30.2534 63.2123 30.8394 63.6735 30.9569C63.8977 31.0076 64.0813 30.935 64.1746 30.8571C64.2702 30.7761 64.2848 30.705 64.2733 30.6996Z" fill="#E07646"/>
<path d="M79.8481 27.7782C79.8603 28.1268 79.5754 28.4248 79.211 28.4444C78.8477 28.464 78.5425 28.1979 78.5302 27.8488C78.5179 27.5002 78.8028 27.2014 79.1665 27.1818C79.5305 27.1626 79.8358 27.4295 79.8481 27.7782Z" fill="#1A5057"/>
<path d="M80.4895 26.4845C80.4077 26.5705 79.9073 26.2003 79.1965 26.2022C78.4865 26.1942 77.965 26.5597 77.8878 26.4726C77.8502 26.4342 77.9335 26.2787 78.1605 26.1132C78.384 25.9484 78.7653 25.7883 79.208 25.7902C79.6508 25.7925 80.0233 25.9557 80.2372 26.1224C80.4557 26.2902 80.5294 26.4461 80.4895 26.4845Z" fill="#1A5057"/>
<path d="M72.7255 27.8596C72.7378 28.2083 72.4525 28.5062 72.0884 28.5258C71.7252 28.5454 71.4199 28.2789 71.4076 27.9302C71.3953 27.5816 71.6806 27.2828 72.0439 27.2636C72.4079 27.244 72.7128 27.5109 72.7255 27.8596Z" fill="#1A5057"/>
<path d="M73.5031 26.6173C73.4209 26.7034 72.9198 26.3332 72.2097 26.3351C71.4997 26.3267 70.9783 26.6926 70.9011 26.6054C70.8634 26.567 70.946 26.4115 71.1741 26.246C71.3976 26.0813 71.7789 25.9212 72.2217 25.9231C72.6644 25.9254 73.0369 26.0886 73.2512 26.2552C73.4685 26.423 73.543 26.5786 73.5031 26.6173Z" fill="#1A5057"/>
<path d="M76.0823 31.8885C76.0788 31.8482 76.5208 31.7718 77.2366 31.6804C77.4182 31.6616 77.5899 31.6255 77.6206 31.5018C77.6632 31.3709 77.5876 31.175 77.4992 30.9638C77.3287 30.5245 77.1502 30.0641 76.9624 29.5818C76.2171 27.6142 75.6775 25.996 75.757 25.9668C75.8365 25.9377 76.5051 27.5086 77.2504 29.4762C77.4297 29.9616 77.6014 30.4239 77.7646 30.8667C77.8333 31.0729 77.9516 31.3068 77.8587 31.579C77.8099 31.7146 77.6767 31.8132 77.5603 31.8444C77.4439 31.8797 77.3418 31.882 77.252 31.8874C76.532 31.9258 76.085 31.9288 76.0823 31.8885Z" fill="#1A5057"/>
<path d="M73.9907 32.38C74.1063 32.3735 74.1078 33.145 74.7679 33.6925C75.4273 34.242 76.2494 34.1553 76.2555 34.2632C76.2663 34.3116 76.0724 34.4129 75.7252 34.4225C75.3846 34.4344 74.8874 34.325 74.4834 33.9898C74.0806 33.6538 73.9074 33.206 73.8809 32.8892C73.8517 32.5667 73.9377 32.3758 73.9907 32.38Z" fill="#1A5057"/>
<path d="M73.6862 23.8318C73.6159 24.025 72.9063 23.9336 72.0726 24.0342C71.2367 24.1179 70.5643 24.3621 70.4537 24.1885C70.4042 24.1056 70.5217 23.924 70.7935 23.7366C71.0631 23.55 71.4928 23.3722 71.9935 23.3165C72.4943 23.262 72.9524 23.3411 73.2561 23.4647C73.5622 23.5884 73.7165 23.74 73.6862 23.8318Z" fill="#1A5057"/>
<path d="M80.2279 24.4274C80.1027 24.5887 79.6131 24.4212 79.0245 24.4136C78.4362 24.3852 77.9373 24.5219 77.8225 24.3533C77.7722 24.2711 77.8506 24.1094 78.0687 23.9566C78.2833 23.8042 78.6424 23.6797 79.0471 23.692C79.4515 23.7051 79.8024 23.851 80.0071 24.0165C80.2149 24.1824 80.2832 24.3491 80.2279 24.4274Z" fill="#1A5057"/>
<path d="M83.618 17.0584C83.6675 16.4851 83.454 15.87 82.9875 15.5328C82.5209 15.196 81.7974 15.2172 81.4184 15.6503C81.6358 14.8781 81.0041 13.9872 80.2035 13.9365C79.4493 13.8885 78.8057 14.4584 78.0769 14.6584C77.3653 14.8535 76.6019 14.6849 75.9173 14.4092C75.233 14.1335 74.5932 13.7533 73.9001 13.4999C72.4547 12.9719 70.802 13.0383 69.4035 13.6804C68.0049 14.3224 66.8775 15.5324 66.3357 16.9728C65.3242 16.6568 64.1749 17.1702 63.5509 18.0269C62.9273 18.8836 62.7672 20.0091 62.8912 21.0612C62.9749 21.7724 63.1807 22.4598 63.42 23.1368C63.4196 23.1963 63.4138 23.2547 63.415 23.3142C63.463 25.8574 63.7502 28.8442 64.8354 28.8607C66.7266 28.8895 66.2758 25.3267 66.2758 25.3267C68.5967 24.4301 67.7319 20.9526 68.3125 20.425C68.8927 19.8973 70.1069 18.6716 74.9661 21.1553C76.8531 22.1196 79.3617 22.0896 80.7315 21.7789C80.7718 21.7701 80.8125 21.764 80.8524 21.7544C80.8609 21.7524 80.872 21.7509 80.8805 21.7486C80.8954 21.7448 80.9058 21.7367 80.9208 21.7325C81.3574 21.6188 81.7782 21.4499 82.1668 21.2037C82.6069 20.9253 83.007 20.5482 83.194 20.0621C83.3807 19.5759 83.3104 18.9688 82.9291 18.6144C83.2877 18.164 83.5685 17.6317 83.618 17.0584Z" fill="#1A5057"/>
<path d="M178.508 170.575L128.697 170.344C122.706 170.317 117.871 165.439 117.896 159.448L118.424 34.5708C118.45 28.5765 123.331 23.7385 129.325 23.7661L179.136 23.9962C185.127 24.0238 189.962 28.9018 189.936 34.8925L189.408 159.77C189.383 165.764 184.502 170.602 178.508 170.575Z" fill="#263238"/>
<path d="M179.065 28.3058L169.408 28.2612C168.113 28.2555 167.058 29.3484 167.052 30.702L167.045 32.4538C167.039 33.8077 165.985 34.9006 164.69 34.8945L145.865 34.8073C144.57 34.8015 143.524 33.6991 143.53 32.3451L143.538 30.5933C143.544 29.2393 142.498 28.1368 141.203 28.1311L137.806 28.1153L129.354 28.0765C125.156 28.0573 121.737 31.4454 121.72 35.6436L121.204 157.533C121.187 161.729 124.572 165.145 128.768 165.165L178.48 165.394C182.678 165.414 186.096 162.025 186.114 157.827L186.63 35.9374C186.646 31.7411 183.261 28.3254 179.065 28.3058Z" fill="#FAFAFA"/>
<path d="M133.37 47.5784C133.37 48.8978 132.301 49.9672 130.982 49.9672C129.662 49.9672 128.593 48.8978 128.593 47.5784C128.593 46.2589 129.662 45.1895 130.982 45.1895C132.301 45.1895 133.37 46.2589 133.37 47.5784Z" fill="#24ABBE"/>
<path d="M137.827 45.7824H177.912C179.137 45.7824 180.13 46.7754 180.13 48.0004V54.073C180.13 55.2979 179.137 56.2913 177.912 56.2913H142.009C140.784 56.2913 139.791 55.2983 139.791 54.073V47.5503L137.827 45.7824Z" fill="#24ABBE"/>
<path d="M173.703 49.5506C173.703 49.6059 167.548 49.6504 159.958 49.6504C152.364 49.6504 146.211 49.6055 146.211 49.5506C146.211 49.4957 152.364 49.4508 159.958 49.4508C167.548 49.4508 173.703 49.4957 173.703 49.5506Z" fill="white"/>
<path d="M173.703 52.0251C173.703 52.0804 167.548 52.1249 159.958 52.1249C152.364 52.1249 146.211 52.08 146.211 52.0251C146.211 51.9698 152.364 51.9252 159.958 51.9252C167.548 51.9252 173.703 51.9698 173.703 52.0251Z" fill="white"/>
<path d="M133.37 106.353C133.37 107.673 132.301 108.742 130.982 108.742C129.662 108.742 128.593 107.673 128.593 106.353C128.593 105.034 129.662 103.965 130.982 103.965C132.301 103.965 133.37 105.034 133.37 106.353Z" fill="#24ABBE"/>
<path d="M137.827 104.557H177.912C179.137 104.557 180.13 105.55 180.13 106.775V112.848C180.13 114.073 179.137 115.066 177.912 115.066H142.009C140.784 115.066 139.791 114.073 139.791 112.848V106.325L137.827 104.557Z" fill="#24ABBE"/>
<path d="M173.703 108.326C173.703 108.381 167.548 108.425 159.958 108.425C152.364 108.425 146.211 108.381 146.211 108.326C146.211 108.271 152.364 108.226 159.958 108.226C167.548 108.225 173.703 108.27 173.703 108.326Z" fill="white"/>
<path d="M173.703 110.8C173.703 110.855 167.548 110.9 159.958 110.9C152.364 110.9 146.211 110.855 146.211 110.8C146.211 110.745 152.364 110.7 159.958 110.7C167.548 110.7 173.703 110.745 173.703 110.8Z" fill="white"/>
<path d="M175.321 68.2886C176.617 68.2886 177.668 67.2375 177.668 65.9409C177.668 64.6442 176.617 63.5931 175.321 63.5931C174.024 63.5931 172.973 64.6442 172.973 65.9409C172.973 67.2375 174.024 68.2886 175.321 68.2886Z" fill="#455A64"/>
<path d="M169.66 62.645H132.116C130.968 62.645 130.038 63.575 130.038 64.7224V70.4099C130.038 71.5572 130.968 72.4873 132.116 72.4873H165.742C166.89 72.4873 167.82 71.5572 167.82 70.4099V64.3008L169.66 62.645Z" fill="#455A64"/>
<path d="M136.058 66.1747C136.058 66.1194 141.823 66.0749 148.932 66.0749C156.044 66.0749 161.808 66.1198 161.808 66.1747C161.808 66.23 156.044 66.2746 148.932 66.2746C141.823 66.2746 136.058 66.2296 136.058 66.1747Z" fill="white"/>
<path d="M136.058 68.4922C136.058 68.4369 141.823 68.3923 148.932 68.3923C156.044 68.3923 161.808 68.4373 161.808 68.4922C161.808 68.5471 156.044 68.592 148.932 68.592C141.823 68.5924 136.058 68.5475 136.058 68.4922Z" fill="white"/>
<path d="M128.593 82.4863C128.593 83.8057 129.662 84.8751 130.982 84.8751C132.301 84.8751 133.37 83.8057 133.37 82.4863C133.37 81.1668 132.301 80.0974 130.982 80.0974C129.662 80.0974 128.593 81.1672 128.593 82.4863Z" fill="#263238"/>
<path d="M139.317 79.0268H176.861C178.008 79.0268 178.938 79.9569 178.938 81.1043V86.7917C178.938 87.9391 178.008 88.8691 176.861 88.8691H143.234C142.087 88.8691 141.157 87.9391 141.157 86.7917V80.6826L139.317 79.0268Z" fill="#263238"/>
<path d="M172.919 82.5562C172.919 82.6115 167.154 82.656 160.045 82.656C152.933 82.656 147.169 82.6111 147.169 82.5562C147.169 82.5009 152.933 82.4563 160.045 82.4563C167.154 82.4563 172.919 82.5009 172.919 82.5562Z" fill="white"/>
<path d="M172.919 84.8736C172.919 84.9289 167.154 84.9734 160.045 84.9734C152.933 84.9734 147.169 84.9285 147.169 84.8736C147.169 84.8183 152.933 84.7738 160.045 84.7738C167.154 84.7738 172.919 84.8187 172.919 84.8736Z" fill="white"/>
<path d="M175.916 99.8696H166.857C166.01 99.8696 165.323 99.183 165.323 98.3363V95.0619C165.323 94.2152 166.01 93.5286 166.857 93.5286H175.916C176.762 93.5286 177.449 94.2152 177.449 95.0619V98.3363C177.449 99.183 176.762 99.8696 175.916 99.8696Z" fill="#263238"/>
<path d="M175.289 96.6989C175.289 96.7542 173.696 96.7987 171.731 96.7987C169.765 96.7987 168.172 96.7538 168.172 96.6989C168.172 96.6436 169.765 96.599 171.731 96.599C173.696 96.599 175.289 96.644 175.289 96.6989Z" fill="white"/>
<path d="M131.731 135.681H125.793V141.619H131.731V135.681Z" fill="#E0E0E0"/>
<path d="M138.793 135.681H132.856V141.619H138.793V135.681Z" fill="#E0E0E0"/>
<path d="M145.856 135.681H139.918V141.619H145.856V135.681Z" fill="#E0E0E0"/>
<path d="M152.918 135.681H146.981V141.619H152.918V135.681Z" fill="#E0E0E0"/>
<path d="M159.981 135.681H154.043V141.619H159.981V135.681Z" fill="#E0E0E0"/>
<path d="M131.999 150.329H125.793V156.535H131.999V150.329Z" fill="#E0E0E0"/>
<path d="M163.115 150.344H133.175V156.55H163.115V150.344Z" fill="#E0E0E0"/>
<path d="M181.241 133.956C181.241 133.956 181.235 133.802 181.232 133.507C181.229 133.207 181.226 132.77 181.221 132.196C181.215 131.041 181.207 129.338 181.196 127.121L181.241 127.166C171.202 127.176 150.13 127.197 125.796 127.221H125.793L125.893 127.121C125.893 129.463 125.893 131.774 125.892 133.956L125.793 133.857C141.393 133.874 155.24 133.889 165.193 133.9C170.173 133.912 174.178 133.922 176.944 133.929C178.324 133.935 179.394 133.94 180.125 133.943C180.486 133.946 180.762 133.948 180.954 133.95C181.141 133.952 181.241 133.956 181.241 133.956C181.241 133.956 181.151 133.961 180.967 133.963C180.779 133.965 180.507 133.967 180.152 133.97C179.426 133.973 178.364 133.978 176.993 133.984C174.232 133.991 170.235 134.001 165.265 134.013C155.294 134.024 141.421 134.039 125.793 134.056H125.693V133.956C125.693 131.774 125.693 129.463 125.693 127.121V127.021H125.793H125.796C150.13 127.046 171.202 127.066 181.24 127.076H181.285L181.285 127.121C181.274 129.35 181.265 131.062 181.259 132.222C181.255 132.792 181.251 133.226 181.249 133.523C181.246 133.813 181.241 133.956 181.241 133.956Z" fill="#263238"/>
<path d="M177.383 131.158H177.101C176.787 131.158 176.532 130.903 176.532 130.589V128.904C176.532 128.589 176.787 128.335 177.101 128.335H177.383C177.698 128.335 177.953 128.59 177.953 128.904V130.589C177.953 130.903 177.698 131.158 177.383 131.158Z" fill="#24ABBE"/>
<path d="M178.963 130.6C178.963 130.621 178.796 130.641 178.51 130.657L178.566 130.605C178.55 130.843 178.49 131.162 178.279 131.483C178.174 131.641 178.022 131.793 177.824 131.893C177.626 131.995 177.394 132.029 177.163 132.019C176.709 132.011 176.323 131.737 176.115 131.444C175.904 131.145 175.809 130.848 175.767 130.611L175.826 130.661C175.495 130.644 175.303 130.623 175.303 130.6C175.303 130.578 175.495 130.557 175.826 130.54L175.87 130.538L175.885 130.589C175.944 130.798 176.056 131.077 176.257 131.336C176.458 131.592 176.78 131.811 177.173 131.82C177.374 131.828 177.573 131.801 177.738 131.72C177.904 131.639 178.036 131.517 178.135 131.382C178.333 131.11 178.415 130.808 178.453 130.596L178.463 130.541L178.51 130.544C178.796 130.56 178.963 130.579 178.963 130.6Z" fill="#24ABBE"/>
<path d="M177.242 131.925C177.297 131.925 177.342 132.12 177.342 132.361C177.342 132.601 177.297 132.796 177.242 132.796C177.187 132.796 177.142 132.601 177.142 132.361C177.142 132.12 177.187 131.925 177.242 131.925Z" fill="#24ABBE"/>
<path d="M170.333 150.329H164.127V156.535H170.333V150.329Z" fill="#E0E0E0"/>
<path d="M181.241 150.329H171.509V156.535H181.241V150.329Z" fill="#24ABBE"/>
<path d="M167.116 135.681H161.178V141.619H167.116V135.681Z" fill="#E0E0E0"/>
<path d="M174.178 135.681H168.24V141.619H174.178V135.681Z" fill="#E0E0E0"/>
<path d="M181.241 135.681H175.303V141.619H181.241V135.681Z" fill="#E0E0E0"/>
<path d="M131.731 143.005H125.793V148.942H131.731V143.005Z" fill="#E0E0E0"/>
<path d="M138.793 143.005H132.856V148.942H138.793V143.005Z" fill="#E0E0E0"/>
<path d="M145.856 143.005H139.918V148.942H145.856V143.005Z" fill="#E0E0E0"/>
<path d="M152.918 143.005H146.981V148.942H152.918V143.005Z" fill="#E0E0E0"/>
<path d="M159.981 143.005H154.043V148.942H159.981V143.005Z" fill="#E0E0E0"/>
<path d="M167.116 143.005H161.178V148.942H167.116V143.005Z" fill="#E0E0E0"/>
<path d="M174.178 143.005H168.24V148.942H174.178V143.005Z" fill="#E0E0E0"/>
<path d="M181.241 143.005H175.303V148.942H181.241V143.005Z" fill="#E0E0E0"/>
<path d="M152.388 121.986C152.386 122.546 151.925 122.999 151.358 122.996C150.792 122.994 150.335 122.537 150.337 121.976C150.34 121.415 150.8 120.962 151.367 120.965C151.933 120.968 152.391 121.425 152.388 121.986Z" fill="#24ABBE"/>
<path d="M155.567 122C155.564 122.561 155.103 123.014 154.537 123.011C153.97 123.009 153.513 122.552 153.515 121.99C153.518 121.43 153.979 120.977 154.545 120.979C155.112 120.982 155.569 121.439 155.567 122Z" fill="#24ABBE"/>
<path d="M158.745 122.015C158.742 122.575 158.281 123.029 157.715 123.026C157.148 123.023 156.691 122.566 156.693 122.005C156.696 121.444 157.157 120.991 157.723 120.994C158.29 120.996 158.747 121.453 158.745 122.015Z" fill="#24ABBE"/>
</svg>
